<mxfile host="app.diagrams.net" modified="2023-11-14T11:46:21.362Z" agent="Mozilla/5.0 (Macintosh; Intel Mac OS X 10_15_7) AppleWebKit/605.1.15 (KHTML, like Gecko) Version/16.6 Safari/605.1.15" etag="ZWLuJjQ43i03src7m1WF" version="22.1.0" type="github">
  <diagram name="Page-1" id="7K8ZteK-jdu3OoJQV833">
    <mxGraphModel dx="1973" dy="1342" grid="0" gridSize="10" guides="1" tooltips="1" connect="0" arrows="0" fold="1" page="0" pageScale="1" pageWidth="1169" pageHeight="827" math="0" shadow="0">
      <root>
        <mxCell id="0" />
        <mxCell id="1" parent="0" />
        <mxCell id="yxDpOZDk2D4iF1txQsUS-1" value="Massive Shells" style="shape=tape;whiteSpace=wrap;html=1;fontSize=16;fillColor=#f5f5f5;strokeColor=#666666;gradientColor=#b3b3b3;" parent="1" vertex="1">
          <mxGeometry x="483.75" y="2520" width="120" height="100" as="geometry" />
        </mxCell>
        <mxCell id="yxDpOZDk2D4iF1txQsUS-2" value="Smokeless Powder" style="shape=cube;whiteSpace=wrap;html=1;boundedLbl=1;backgroundOutline=1;darkOpacity=0.05;darkOpacity2=0.1;fontSize=16;fillColor=#6d8764;fontColor=#ffffff;strokeColor=#3A5431;" parent="1" vertex="1">
          <mxGeometry x="540" y="2340" width="120" height="80" as="geometry" />
        </mxCell>
        <mxCell id="yxDpOZDk2D4iF1txQsUS-3" value="Bronze Ingots" style="shape=cube;whiteSpace=wrap;html=1;boundedLbl=1;backgroundOutline=1;darkOpacity=0.05;darkOpacity2=0.1;fontSize=16;fillColor=#d0cee2;strokeColor=#56517e;" parent="1" vertex="1">
          <mxGeometry x="690" y="2340" width="120" height="80" as="geometry" />
        </mxCell>
        <mxCell id="yxDpOZDk2D4iF1txQsUS-4" value="Steel Plates" style="shape=cube;whiteSpace=wrap;html=1;boundedLbl=1;backgroundOutline=1;darkOpacity=0.05;darkOpacity2=0.1;fontSize=16;fillColor=#b0e3e6;strokeColor=#0e8088;" parent="1" vertex="1">
          <mxGeometry x="63.75" y="1800" width="120" height="80" as="geometry" />
        </mxCell>
        <mxCell id="yxDpOZDk2D4iF1txQsUS-5" value="Glycerol" style="shape=cube;whiteSpace=wrap;html=1;boundedLbl=1;backgroundOutline=1;darkOpacity=0.05;darkOpacity2=0.1;fontSize=16;fillColor=#6d8764;fontColor=#ffffff;strokeColor=#3A5431;" parent="1" vertex="1">
          <mxGeometry x="311.25" y="2160" width="120" height="80" as="geometry" />
        </mxCell>
        <mxCell id="yxDpOZDk2D4iF1txQsUS-6" value="" style="endArrow=classic;html=1;rounded=0;fontSize=12;startSize=8;endSize=8;curved=1;noEdgeStyle=1;orthogonal=1;" parent="1" source="yxDpOZDk2D4iF1txQsUS-2" target="yxDpOZDk2D4iF1txQsUS-1" edge="1">
          <mxGeometry relative="1" as="geometry">
            <mxPoint x="98" y="177" as="sourcePoint" />
            <mxPoint x="155" y="237" as="targetPoint" />
            <Array as="points">
              <mxPoint x="600" y="2432" />
              <mxPoint x="557.5" y="2506" />
            </Array>
          </mxGeometry>
        </mxCell>
        <mxCell id="yxDpOZDk2D4iF1txQsUS-7" value="5" style="edgeLabel;resizable=0;html=1;align=center;verticalAlign=middle;fontSize=16;" parent="yxDpOZDk2D4iF1txQsUS-6" connectable="0" vertex="1">
          <mxGeometry relative="1" as="geometry" />
        </mxCell>
        <mxCell id="yxDpOZDk2D4iF1txQsUS-8" value="" style="endArrow=classic;html=1;rounded=0;fontSize=12;startSize=8;endSize=8;curved=1;noEdgeStyle=1;orthogonal=1;" parent="1" source="yxDpOZDk2D4iF1txQsUS-4" target="yxDpOZDk2D4iF1txQsUS-1" edge="1">
          <mxGeometry relative="1" as="geometry">
            <mxPoint x="366" y="216" as="sourcePoint" />
            <mxPoint x="431" y="271" as="targetPoint" />
            <Array as="points">
              <mxPoint x="123.75" y="1892" />
              <mxPoint y="1930" />
              <mxPoint y="2110" />
              <mxPoint y="2110" />
              <mxPoint y="2290" />
              <mxPoint y="2290" />
              <mxPoint y="2470" />
              <mxPoint x="502.5" y="2508" />
            </Array>
          </mxGeometry>
        </mxCell>
        <mxCell id="yxDpOZDk2D4iF1txQsUS-9" value="5" style="edgeLabel;resizable=0;html=1;align=center;verticalAlign=middle;fontSize=16;" parent="yxDpOZDk2D4iF1txQsUS-8" connectable="0" vertex="1">
          <mxGeometry relative="1" as="geometry" />
        </mxCell>
        <mxCell id="yxDpOZDk2D4iF1txQsUS-10" value="" style="endArrow=classic;html=1;rounded=0;fontSize=12;startSize=8;endSize=8;curved=1;noEdgeStyle=1;orthogonal=1;" parent="1" source="yxDpOZDk2D4iF1txQsUS-5" target="yxDpOZDk2D4iF1txQsUS-1" edge="1">
          <mxGeometry relative="1" as="geometry">
            <mxPoint x="341" y="284" as="sourcePoint" />
            <mxPoint x="441" y="281" as="targetPoint" />
            <Array as="points">
              <mxPoint x="343.75" y="2252" />
              <mxPoint x="487.5" y="2290" />
              <mxPoint x="487.5" y="2470" />
              <mxPoint x="530" y="2506" />
            </Array>
          </mxGeometry>
        </mxCell>
        <mxCell id="yxDpOZDk2D4iF1txQsUS-11" value="5" style="edgeLabel;resizable=0;html=1;align=center;verticalAlign=middle;fontSize=16;" parent="yxDpOZDk2D4iF1txQsUS-10" connectable="0" vertex="1">
          <mxGeometry relative="1" as="geometry" />
        </mxCell>
        <mxCell id="yxDpOZDk2D4iF1txQsUS-13" value="" style="endArrow=classic;html=1;rounded=0;fontSize=12;startSize=8;endSize=8;curved=1;noEdgeStyle=1;orthogonal=1;" parent="1" source="yxDpOZDk2D4iF1txQsUS-3" target="yxDpOZDk2D4iF1txQsUS-1" edge="1">
          <mxGeometry relative="1" as="geometry">
            <mxPoint x="351" y="291" as="sourcePoint" />
            <mxPoint x="451" y="291" as="targetPoint" />
            <Array as="points">
              <mxPoint x="750" y="2432" />
              <mxPoint x="585" y="2508" />
            </Array>
          </mxGeometry>
        </mxCell>
        <mxCell id="yxDpOZDk2D4iF1txQsUS-14" value="5" style="edgeLabel;resizable=0;html=1;align=center;verticalAlign=middle;fontSize=16;" parent="yxDpOZDk2D4iF1txQsUS-13" connectable="0" vertex="1">
          <mxGeometry relative="1" as="geometry" />
        </mxCell>
        <mxCell id="yxDpOZDk2D4iF1txQsUS-15" value="Manufactory" style="swimlane;fontStyle=0;childLayout=stackLayout;horizontal=1;startSize=30;horizontalStack=0;resizeParent=1;resizeParentMax=0;resizeLast=0;collapsible=1;marginBottom=0;whiteSpace=wrap;html=1;fontSize=16;" parent="1" vertex="1">
          <mxGeometry x="1350" width="140" height="360" as="geometry" />
        </mxCell>
        <mxCell id="yxDpOZDk2D4iF1txQsUS-16" value="Heavy Factory" style="text;strokeColor=#666666;fillColor=#f5f5f5;align=left;verticalAlign=middle;spacingLeft=4;spacingRight=4;overflow=hidden;points=[[0,0.5],[1,0.5]];portConstraint=eastwest;rotatable=0;whiteSpace=wrap;html=1;fontSize=16;gradientColor=#b3b3b3;" parent="yxDpOZDk2D4iF1txQsUS-15" vertex="1">
          <mxGeometry y="30" width="140" height="30" as="geometry" />
        </mxCell>
        <mxCell id="yxDpOZDk2D4iF1txQsUS-17" value="Smithy" style="text;strokeColor=#0e8088;fillColor=#b0e3e6;align=left;verticalAlign=middle;spacingLeft=4;spacingRight=4;overflow=hidden;points=[[0,0.5],[1,0.5]];portConstraint=eastwest;rotatable=0;whiteSpace=wrap;html=1;fontSize=16;" parent="yxDpOZDk2D4iF1txQsUS-15" vertex="1">
          <mxGeometry y="60" width="140" height="30" as="geometry" />
        </mxCell>
        <mxCell id="yxDpOZDk2D4iF1txQsUS-29" value="Foundry" style="text;strokeColor=#56517e;fillColor=#d0cee2;align=left;verticalAlign=middle;spacingLeft=4;spacingRight=4;overflow=hidden;points=[[0,0.5],[1,0.5]];portConstraint=eastwest;rotatable=0;whiteSpace=wrap;html=1;fontSize=16;" parent="yxDpOZDk2D4iF1txQsUS-15" vertex="1">
          <mxGeometry y="90" width="140" height="30" as="geometry" />
        </mxCell>
        <mxCell id="yxDpOZDk2D4iF1txQsUS-28" value="Chemist" style="text;strokeColor=#3A5431;fillColor=#6d8764;align=left;verticalAlign=middle;spacingLeft=4;spacingRight=4;overflow=hidden;points=[[0,0.5],[1,0.5]];portConstraint=eastwest;rotatable=0;whiteSpace=wrap;html=1;fontSize=16;fontColor=#ffffff;" parent="yxDpOZDk2D4iF1txQsUS-15" vertex="1">
          <mxGeometry y="120" width="140" height="30" as="geometry" />
        </mxCell>
        <mxCell id="yxDpOZDk2D4iF1txQsUS-117" value="Lumberyard" style="text;strokeColor=#82b366;fillColor=#d5e8d4;align=left;verticalAlign=middle;spacingLeft=4;spacingRight=4;overflow=hidden;points=[[0,0.5],[1,0.5]];portConstraint=eastwest;rotatable=0;whiteSpace=wrap;html=1;fontSize=16;" parent="yxDpOZDk2D4iF1txQsUS-15" vertex="1">
          <mxGeometry y="150" width="140" height="30" as="geometry" />
        </mxCell>
        <mxCell id="yxDpOZDk2D4iF1txQsUS-18" value="Carpenter" style="text;strokeColor=#d79b00;fillColor=#ffe6cc;align=left;verticalAlign=middle;spacingLeft=4;spacingRight=4;overflow=hidden;points=[[0,0.5],[1,0.5]];portConstraint=eastwest;rotatable=0;whiteSpace=wrap;html=1;fontSize=16;" parent="yxDpOZDk2D4iF1txQsUS-15" vertex="1">
          <mxGeometry y="180" width="140" height="30" as="geometry" />
        </mxCell>
        <mxCell id="yxDpOZDk2D4iF1txQsUS-152" value="Mason" style="text;strokeColor=#6c8ebf;fillColor=#dae8fc;align=left;verticalAlign=middle;spacingLeft=4;spacingRight=4;overflow=hidden;points=[[0,0.5],[1,0.5]];portConstraint=eastwest;rotatable=0;whiteSpace=wrap;html=1;fontSize=16;" parent="yxDpOZDk2D4iF1txQsUS-15" vertex="1">
          <mxGeometry y="210" width="140" height="30" as="geometry" />
        </mxCell>
        <mxCell id="yxDpOZDk2D4iF1txQsUS-179" value="Resevoir" style="text;strokeColor=#001DBC;fillColor=#0050ef;align=left;verticalAlign=middle;spacingLeft=4;spacingRight=4;overflow=hidden;points=[[0,0.5],[1,0.5]];portConstraint=eastwest;rotatable=0;whiteSpace=wrap;html=1;fontSize=16;fontColor=#ffffff;" parent="yxDpOZDk2D4iF1txQsUS-15" vertex="1">
          <mxGeometry y="240" width="140" height="30" as="geometry" />
        </mxCell>
        <mxCell id="yxDpOZDk2D4iF1txQsUS-133" value="Mine" style="text;strokeColor=#b85450;fillColor=#f8cecc;align=left;verticalAlign=middle;spacingLeft=4;spacingRight=4;overflow=hidden;points=[[0,0.5],[1,0.5]];portConstraint=eastwest;rotatable=0;whiteSpace=wrap;html=1;fontSize=16;" parent="yxDpOZDk2D4iF1txQsUS-15" vertex="1">
          <mxGeometry y="270" width="140" height="30" as="geometry" />
        </mxCell>
        <mxCell id="0s5IeUzLugU76TcuK4UH-10" value="Mill" style="text;strokeColor=#005700;fillColor=#008a00;align=left;verticalAlign=middle;spacingLeft=4;spacingRight=4;overflow=hidden;points=[[0,0.5],[1,0.5]];portConstraint=eastwest;rotatable=0;whiteSpace=wrap;html=1;fontSize=16;fontColor=#ffffff;" vertex="1" parent="yxDpOZDk2D4iF1txQsUS-15">
          <mxGeometry y="300" width="140" height="30" as="geometry" />
        </mxCell>
        <mxCell id="yxDpOZDk2D4iF1txQsUS-121" value="Quarry" style="text;strokeColor=#666666;fillColor=#f5f5f5;align=left;verticalAlign=middle;spacingLeft=4;spacingRight=4;overflow=hidden;points=[[0,0.5],[1,0.5]];portConstraint=eastwest;rotatable=0;whiteSpace=wrap;html=1;fontSize=16;fontColor=#333333;" parent="yxDpOZDk2D4iF1txQsUS-15" vertex="1">
          <mxGeometry y="330" width="140" height="30" as="geometry" />
        </mxCell>
        <mxCell id="yxDpOZDk2D4iF1txQsUS-19" value="Steel Ingots" style="shape=cube;whiteSpace=wrap;html=1;boundedLbl=1;backgroundOutline=1;darkOpacity=0.05;darkOpacity2=0.1;fontSize=16;fillColor=#d0cee2;strokeColor=#56517e;" parent="1" vertex="1">
          <mxGeometry x="645" y="1620" width="120" height="80" as="geometry" />
        </mxCell>
        <mxCell id="yxDpOZDk2D4iF1txQsUS-20" value="Machine Oil" style="shape=cube;whiteSpace=wrap;html=1;boundedLbl=1;backgroundOutline=1;darkOpacity=0.05;darkOpacity2=0.1;fontSize=16;fillColor=#6d8764;fontColor=#ffffff;strokeColor=#3A5431;" parent="1" vertex="1">
          <mxGeometry x="480" y="360" width="120" height="80" as="geometry" />
        </mxCell>
        <mxCell id="yxDpOZDk2D4iF1txQsUS-21" value="Wooden Palettes" style="shape=cube;whiteSpace=wrap;html=1;boundedLbl=1;backgroundOutline=1;darkOpacity=0.05;darkOpacity2=0.1;fontSize=16;fillColor=#ffe6cc;strokeColor=#d79b00;" parent="1" vertex="1">
          <mxGeometry x="315" y="720" width="120" height="80" as="geometry" />
        </mxCell>
        <mxCell id="yxDpOZDk2D4iF1txQsUS-22" value="" style="endArrow=classic;html=1;rounded=0;fontSize=12;startSize=8;endSize=8;curved=1;noEdgeStyle=1;orthogonal=1;" parent="1" source="yxDpOZDk2D4iF1txQsUS-21" target="yxDpOZDk2D4iF1txQsUS-4" edge="1">
          <mxGeometry relative="1" as="geometry">
            <mxPoint x="49" y="483" as="sourcePoint" />
            <mxPoint x="149" y="483" as="targetPoint" />
            <Array as="points">
              <mxPoint x="375" y="812" />
              <mxPoint x="165" y="850" />
              <mxPoint x="165" y="1030" />
              <mxPoint x="165" y="1030" />
              <mxPoint x="165" y="1210" />
              <mxPoint x="165" y="1210" />
              <mxPoint x="165" y="1390" />
              <mxPoint x="165" y="1390" />
              <mxPoint x="165" y="1570" />
              <mxPoint x="165" y="1570" />
              <mxPoint x="165" y="1750" />
              <mxPoint x="123.75" y="1786" />
            </Array>
          </mxGeometry>
        </mxCell>
        <mxCell id="yxDpOZDk2D4iF1txQsUS-23" value="10" style="edgeLabel;resizable=0;html=1;align=center;verticalAlign=middle;fontSize=16;" parent="yxDpOZDk2D4iF1txQsUS-22" connectable="0" vertex="1">
          <mxGeometry relative="1" as="geometry" />
        </mxCell>
        <mxCell id="yxDpOZDk2D4iF1txQsUS-24" value="" style="endArrow=classic;html=1;rounded=0;fontSize=12;startSize=8;endSize=8;curved=1;noEdgeStyle=1;orthogonal=1;" parent="1" source="yxDpOZDk2D4iF1txQsUS-20" target="yxDpOZDk2D4iF1txQsUS-4" edge="1">
          <mxGeometry relative="1" as="geometry">
            <mxPoint x="51" y="511" as="sourcePoint" />
            <mxPoint x="151" y="511" as="targetPoint" />
            <Array as="points">
              <mxPoint x="492.85714285714283" y="452" />
              <mxPoint x="135" y="490" />
              <mxPoint x="135" y="670" />
              <mxPoint x="135" y="670" />
              <mxPoint x="135" y="850" />
              <mxPoint x="135" y="850" />
              <mxPoint x="135" y="1030" />
              <mxPoint x="135" y="1030" />
              <mxPoint x="135" y="1210" />
              <mxPoint x="135" y="1210" />
              <mxPoint x="135" y="1390" />
              <mxPoint x="135" y="1390" />
              <mxPoint x="135" y="1570" />
              <mxPoint x="135" y="1570" />
              <mxPoint x="135" y="1750" />
              <mxPoint x="87.08333333333333" y="1788" />
            </Array>
          </mxGeometry>
        </mxCell>
        <mxCell id="yxDpOZDk2D4iF1txQsUS-25" value="5" style="edgeLabel;resizable=0;html=1;align=center;verticalAlign=middle;fontSize=16;" parent="yxDpOZDk2D4iF1txQsUS-24" connectable="0" vertex="1">
          <mxGeometry relative="1" as="geometry" />
        </mxCell>
        <mxCell id="yxDpOZDk2D4iF1txQsUS-30" value="Copper Ingots" style="shape=cube;whiteSpace=wrap;html=1;boundedLbl=1;backgroundOutline=1;darkOpacity=0.05;darkOpacity2=0.1;fontSize=16;fillColor=#d0cee2;strokeColor=#56517e;" parent="1" vertex="1">
          <mxGeometry x="780" y="2160" width="120" height="80" as="geometry" />
        </mxCell>
        <mxCell id="yxDpOZDk2D4iF1txQsUS-31" value="Tin Ingots" style="shape=cube;whiteSpace=wrap;html=1;boundedLbl=1;backgroundOutline=1;darkOpacity=0.05;darkOpacity2=0.1;fontSize=16;fillColor=#d0cee2;strokeColor=#56517e;" parent="1" vertex="1">
          <mxGeometry x="990" y="1980" width="120" height="80" as="geometry" />
        </mxCell>
        <mxCell id="yxDpOZDk2D4iF1txQsUS-33" value="Sorted coal" style="shape=cube;whiteSpace=wrap;html=1;boundedLbl=1;backgroundOutline=1;darkOpacity=0.05;darkOpacity2=0.1;fontSize=16;fillColor=#f8cecc;strokeColor=#b85450;" parent="1" vertex="1">
          <mxGeometry x="750" y="1260" width="120" height="80" as="geometry" />
        </mxCell>
        <mxCell id="yxDpOZDk2D4iF1txQsUS-34" value="" style="endArrow=classic;html=1;rounded=0;fontSize=12;startSize=8;endSize=8;curved=1;noEdgeStyle=1;orthogonal=1;" parent="1" source="yxDpOZDk2D4iF1txQsUS-30" target="yxDpOZDk2D4iF1txQsUS-3" edge="1">
          <mxGeometry relative="1" as="geometry">
            <mxPoint x="-130" y="433" as="sourcePoint" />
            <mxPoint x="-46" y="433" as="targetPoint" />
            <Array as="points">
              <mxPoint x="840" y="2252" />
              <mxPoint x="786.6666666666666" y="2328" />
            </Array>
          </mxGeometry>
        </mxCell>
        <mxCell id="yxDpOZDk2D4iF1txQsUS-35" value="5" style="edgeLabel;resizable=0;html=1;align=center;verticalAlign=middle;fontSize=16;" parent="yxDpOZDk2D4iF1txQsUS-34" connectable="0" vertex="1">
          <mxGeometry relative="1" as="geometry" />
        </mxCell>
        <mxCell id="yxDpOZDk2D4iF1txQsUS-36" value="" style="endArrow=classic;html=1;rounded=0;fontSize=12;startSize=8;endSize=8;curved=1;noEdgeStyle=1;orthogonal=1;" parent="1" source="yxDpOZDk2D4iF1txQsUS-31" target="yxDpOZDk2D4iF1txQsUS-3" edge="1">
          <mxGeometry relative="1" as="geometry">
            <mxPoint x="-115" y="471" as="sourcePoint" />
            <mxPoint x="-15" y="471" as="targetPoint" />
            <Array as="points">
              <mxPoint x="1050" y="2072" />
              <mxPoint x="690" y="2110" />
              <mxPoint x="690" y="2290" />
              <mxPoint x="713.3333333333334" y="2328" />
            </Array>
          </mxGeometry>
        </mxCell>
        <mxCell id="yxDpOZDk2D4iF1txQsUS-37" value="2" style="edgeLabel;resizable=0;html=1;align=center;verticalAlign=middle;fontSize=16;" parent="yxDpOZDk2D4iF1txQsUS-36" connectable="0" vertex="1">
          <mxGeometry relative="1" as="geometry" />
        </mxCell>
        <mxCell id="yxDpOZDk2D4iF1txQsUS-38" value="" style="endArrow=classic;html=1;rounded=0;fontSize=12;startSize=8;endSize=8;curved=1;noEdgeStyle=1;orthogonal=1;" parent="1" source="yxDpOZDk2D4iF1txQsUS-33" target="yxDpOZDk2D4iF1txQsUS-3" edge="1">
          <mxGeometry relative="1" as="geometry">
            <mxPoint x="-137" y="511" as="sourcePoint" />
            <mxPoint x="-37" y="511" as="targetPoint" />
            <Array as="points">
              <mxPoint x="789.375" y="1356" />
              <mxPoint x="795" y="1390" />
              <mxPoint x="795" y="1570" />
              <mxPoint x="975" y="1570" />
              <mxPoint x="975" y="1750" />
              <mxPoint x="975" y="1750" />
              <mxPoint x="975" y="1930" />
              <mxPoint x="1140" y="1930" />
              <mxPoint x="1140" y="2110" />
              <mxPoint x="720" y="2110" />
              <mxPoint x="720" y="2290" />
              <mxPoint x="750" y="2326" />
            </Array>
          </mxGeometry>
        </mxCell>
        <mxCell id="yxDpOZDk2D4iF1txQsUS-39" value="2" style="edgeLabel;resizable=0;html=1;align=center;verticalAlign=middle;fontSize=16;" parent="yxDpOZDk2D4iF1txQsUS-38" connectable="0" vertex="1">
          <mxGeometry relative="1" as="geometry" />
        </mxCell>
        <mxCell id="yxDpOZDk2D4iF1txQsUS-40" value="Animal Fats" style="shape=cube;whiteSpace=wrap;html=1;boundedLbl=1;backgroundOutline=1;darkOpacity=0.05;darkOpacity2=0.1;fontSize=16;" parent="1" vertex="1">
          <mxGeometry x="30" y="1980" width="120" height="80" as="geometry" />
        </mxCell>
        <mxCell id="yxDpOZDk2D4iF1txQsUS-41" value="Charcoal" style="shape=cube;whiteSpace=wrap;html=1;boundedLbl=1;backgroundOutline=1;darkOpacity=0.05;darkOpacity2=0.1;fontSize=16;fillColor=#d5e8d4;strokeColor=#82b366;" parent="1" vertex="1">
          <mxGeometry x="180" y="1980" width="120" height="80" as="geometry" />
        </mxCell>
        <mxCell id="yxDpOZDk2D4iF1txQsUS-42" value="Water" style="shape=cube;whiteSpace=wrap;html=1;boundedLbl=1;backgroundOutline=1;darkOpacity=0.05;darkOpacity2=0.1;fontSize=16;fillColor=#0050ef;fontColor=#ffffff;strokeColor=#001DBC;" parent="1" vertex="1">
          <mxGeometry x="405" y="1800" width="120" height="80" as="geometry" />
        </mxCell>
        <mxCell id="yxDpOZDk2D4iF1txQsUS-43" value="" style="endArrow=classic;html=1;rounded=0;fontSize=12;startSize=8;endSize=8;curved=1;noEdgeStyle=1;orthogonal=1;" parent="1" source="yxDpOZDk2D4iF1txQsUS-33" target="yxDpOZDk2D4iF1txQsUS-5" edge="1">
          <mxGeometry relative="1" as="geometry">
            <mxPoint x="-157" y="568" as="sourcePoint" />
            <mxPoint x="-57" y="568" as="targetPoint" />
            <Array as="points">
              <mxPoint x="803.125" y="1358" />
              <mxPoint x="825" y="1390" />
              <mxPoint x="825" y="1570" />
              <mxPoint x="1005" y="1570" />
              <mxPoint x="1005" y="1750" />
              <mxPoint x="1005" y="1750" />
              <mxPoint x="1005" y="1930" />
              <mxPoint x="1170" y="1930" />
              <mxPoint x="1170" y="2110" />
              <mxPoint x="412.5" y="2148" />
            </Array>
          </mxGeometry>
        </mxCell>
        <mxCell id="yxDpOZDk2D4iF1txQsUS-44" value="1" style="edgeLabel;resizable=0;html=1;align=center;verticalAlign=middle;fontSize=16;" parent="yxDpOZDk2D4iF1txQsUS-43" connectable="0" vertex="1">
          <mxGeometry relative="1" as="geometry" />
        </mxCell>
        <mxCell id="yxDpOZDk2D4iF1txQsUS-45" value="" style="endArrow=classic;html=1;rounded=0;fontSize=12;startSize=8;endSize=8;curved=1;noEdgeStyle=1;orthogonal=1;" parent="1" source="yxDpOZDk2D4iF1txQsUS-42" target="yxDpOZDk2D4iF1txQsUS-5" edge="1">
          <mxGeometry relative="1" as="geometry">
            <mxPoint x="-153" y="551" as="sourcePoint" />
            <mxPoint x="-53" y="551" as="targetPoint" />
            <Array as="points">
              <mxPoint x="419.1666666666667" y="1892" />
              <mxPoint x="330" y="1930" />
              <mxPoint x="330" y="2110" />
              <mxPoint x="385" y="2146" />
            </Array>
          </mxGeometry>
        </mxCell>
        <mxCell id="yxDpOZDk2D4iF1txQsUS-46" value="1" style="edgeLabel;resizable=0;html=1;align=center;verticalAlign=middle;fontSize=16;" parent="yxDpOZDk2D4iF1txQsUS-45" connectable="0" vertex="1">
          <mxGeometry relative="1" as="geometry" />
        </mxCell>
        <mxCell id="yxDpOZDk2D4iF1txQsUS-47" value="" style="endArrow=classic;html=1;rounded=0;fontSize=12;startSize=8;endSize=8;curved=1;noEdgeStyle=1;orthogonal=1;" parent="1" source="yxDpOZDk2D4iF1txQsUS-41" target="yxDpOZDk2D4iF1txQsUS-5" edge="1">
          <mxGeometry relative="1" as="geometry">
            <mxPoint x="-126" y="494" as="sourcePoint" />
            <mxPoint x="-26" y="494" as="targetPoint" />
            <Array as="points">
              <mxPoint x="240" y="2072" />
              <mxPoint x="357.5" y="2146" />
            </Array>
          </mxGeometry>
        </mxCell>
        <mxCell id="yxDpOZDk2D4iF1txQsUS-48" value="1" style="edgeLabel;resizable=0;html=1;align=center;verticalAlign=middle;fontSize=16;" parent="yxDpOZDk2D4iF1txQsUS-47" connectable="0" vertex="1">
          <mxGeometry relative="1" as="geometry" />
        </mxCell>
        <mxCell id="yxDpOZDk2D4iF1txQsUS-49" value="" style="endArrow=classic;html=1;rounded=0;fontSize=12;startSize=8;endSize=8;curved=1;noEdgeStyle=1;orthogonal=1;" parent="1" source="yxDpOZDk2D4iF1txQsUS-40" target="yxDpOZDk2D4iF1txQsUS-5" edge="1">
          <mxGeometry relative="1" as="geometry">
            <mxPoint x="-98" y="541" as="sourcePoint" />
            <mxPoint x="-19" y="543" as="targetPoint" />
            <Array as="points">
              <mxPoint x="90" y="2072" />
              <mxPoint x="330" y="2148" />
            </Array>
          </mxGeometry>
        </mxCell>
        <mxCell id="yxDpOZDk2D4iF1txQsUS-50" value="1" style="edgeLabel;resizable=0;html=1;align=center;verticalAlign=middle;fontSize=16;" parent="yxDpOZDk2D4iF1txQsUS-49" connectable="0" vertex="1">
          <mxGeometry relative="1" as="geometry" />
        </mxCell>
        <mxCell id="yxDpOZDk2D4iF1txQsUS-51" value="Aqua Fortis" style="shape=cube;whiteSpace=wrap;html=1;boundedLbl=1;backgroundOutline=1;darkOpacity=0.05;darkOpacity2=0.1;fontSize=16;fillColor=#6d8764;fontColor=#ffffff;strokeColor=#3A5431;" parent="1" vertex="1">
          <mxGeometry x="504" y="2160" width="120" height="80" as="geometry" />
        </mxCell>
        <mxCell id="yxDpOZDk2D4iF1txQsUS-52" value="Sulfur Powder" style="shape=cube;whiteSpace=wrap;html=1;boundedLbl=1;backgroundOutline=1;darkOpacity=0.05;darkOpacity2=0.1;fontSize=16;fillColor=#60a917;fontColor=#ffffff;strokeColor=#2D7600;" parent="1" vertex="1">
          <mxGeometry x="735" y="540" width="120" height="80" as="geometry" />
        </mxCell>
        <mxCell id="yxDpOZDk2D4iF1txQsUS-53" value="" style="endArrow=classic;html=1;rounded=0;fontSize=12;startSize=8;endSize=8;curved=1;noEdgeStyle=1;orthogonal=1;" parent="1" source="yxDpOZDk2D4iF1txQsUS-51" target="yxDpOZDk2D4iF1txQsUS-2" edge="1">
          <mxGeometry relative="1" as="geometry">
            <mxPoint x="-236" y="449" as="sourcePoint" />
            <mxPoint x="-136" y="449" as="targetPoint" />
            <Array as="points">
              <mxPoint x="564" y="2252" />
              <mxPoint x="586.25" y="2326" />
            </Array>
          </mxGeometry>
        </mxCell>
        <mxCell id="yxDpOZDk2D4iF1txQsUS-54" value="3" style="edgeLabel;resizable=0;html=1;align=center;verticalAlign=middle;fontSize=16;" parent="yxDpOZDk2D4iF1txQsUS-53" connectable="0" vertex="1">
          <mxGeometry relative="1" as="geometry" />
        </mxCell>
        <mxCell id="yxDpOZDk2D4iF1txQsUS-55" value="" style="endArrow=classic;html=1;rounded=0;fontSize=12;startSize=8;endSize=8;curved=1;noEdgeStyle=1;orthogonal=1;" parent="1" source="yxDpOZDk2D4iF1txQsUS-52" target="yxDpOZDk2D4iF1txQsUS-2" edge="1">
          <mxGeometry relative="1" as="geometry">
            <mxPoint x="-211" y="531" as="sourcePoint" />
            <mxPoint x="-111" y="531" as="targetPoint" />
            <Array as="points">
              <mxPoint x="767.5" y="632" />
              <mxPoint x="795" y="670" />
              <mxPoint x="795" y="850" />
              <mxPoint x="1005" y="850" />
              <mxPoint x="1005" y="1030" />
              <mxPoint x="1005" y="1030" />
              <mxPoint x="1005" y="1210" />
              <mxPoint x="1005" y="1210" />
              <mxPoint x="1005" y="1390" />
              <mxPoint x="1005" y="1390" />
              <mxPoint x="1005" y="1570" />
              <mxPoint x="1260" y="1570" />
              <mxPoint x="1260" y="1750" />
              <mxPoint x="1260" y="1750" />
              <mxPoint x="1260" y="1930" />
              <mxPoint x="1260" y="1930" />
              <mxPoint x="1260" y="2110" />
              <mxPoint x="1260" y="2110" />
              <mxPoint x="1260" y="2290" />
              <mxPoint x="641.25" y="2328" />
            </Array>
          </mxGeometry>
        </mxCell>
        <mxCell id="yxDpOZDk2D4iF1txQsUS-56" value="2" style="edgeLabel;resizable=0;html=1;align=center;verticalAlign=middle;fontSize=16;" parent="yxDpOZDk2D4iF1txQsUS-55" connectable="0" vertex="1">
          <mxGeometry relative="1" as="geometry" />
        </mxCell>
        <mxCell id="yxDpOZDk2D4iF1txQsUS-57" value="" style="endArrow=classic;html=1;rounded=0;fontSize=12;startSize=8;endSize=8;curved=1;noEdgeStyle=1;orthogonal=1;" parent="1" source="yxDpOZDk2D4iF1txQsUS-5" target="yxDpOZDk2D4iF1txQsUS-2" edge="1">
          <mxGeometry relative="1" as="geometry">
            <mxPoint x="-275" y="1183" as="sourcePoint" />
            <mxPoint x="-175" y="1183" as="targetPoint" />
            <Array as="points">
              <mxPoint x="398.75" y="2252" />
              <mxPoint x="558.75" y="2328" />
            </Array>
          </mxGeometry>
        </mxCell>
        <mxCell id="yxDpOZDk2D4iF1txQsUS-58" value="5" style="edgeLabel;resizable=0;html=1;align=center;verticalAlign=middle;fontSize=16;" parent="yxDpOZDk2D4iF1txQsUS-57" connectable="0" vertex="1">
          <mxGeometry relative="1" as="geometry" />
        </mxCell>
        <mxCell id="yxDpOZDk2D4iF1txQsUS-59" value="" style="endArrow=classic;html=1;rounded=0;fontSize=12;startSize=8;endSize=8;curved=1;noEdgeStyle=1;orthogonal=1;" parent="1" source="yxDpOZDk2D4iF1txQsUS-33" target="yxDpOZDk2D4iF1txQsUS-2" edge="1">
          <mxGeometry relative="1" as="geometry">
            <mxPoint x="-240" y="1258" as="sourcePoint" />
            <mxPoint x="-151" y="1269" as="targetPoint" />
            <Array as="points">
              <mxPoint x="816.875" y="1358" />
              <mxPoint x="855" y="1390" />
              <mxPoint x="855" y="1570" />
              <mxPoint x="1035" y="1570" />
              <mxPoint x="1035" y="1750" />
              <mxPoint x="1035" y="1750" />
              <mxPoint x="1035" y="1930" />
              <mxPoint x="1200" y="1930" />
              <mxPoint x="1200" y="2110" />
              <mxPoint x="750" y="2110" />
              <mxPoint x="750" y="2290" />
              <mxPoint x="613.75" y="2326" />
            </Array>
          </mxGeometry>
        </mxCell>
        <mxCell id="yxDpOZDk2D4iF1txQsUS-60" value="2" style="edgeLabel;resizable=0;html=1;align=center;verticalAlign=middle;fontSize=16;" parent="yxDpOZDk2D4iF1txQsUS-59" connectable="0" vertex="1">
          <mxGeometry relative="1" as="geometry" />
        </mxCell>
        <mxCell id="yxDpOZDk2D4iF1txQsUS-61" value="Saltpeter" style="shape=cube;whiteSpace=wrap;html=1;boundedLbl=1;backgroundOutline=1;darkOpacity=0.05;darkOpacity2=0.1;fontSize=16;" parent="1" vertex="1">
          <mxGeometry x="360" y="1980" width="120" height="80" as="geometry" />
        </mxCell>
        <mxCell id="yxDpOZDk2D4iF1txQsUS-62" value="Fine Sand" style="shape=cube;whiteSpace=wrap;html=1;boundedLbl=1;backgroundOutline=1;darkOpacity=0.05;darkOpacity2=0.1;fontSize=16;fillColor=#dae8fc;strokeColor=#6c8ebf;" parent="1" vertex="1">
          <mxGeometry x="540" y="1980" width="120" height="80" as="geometry" />
        </mxCell>
        <mxCell id="yxDpOZDk2D4iF1txQsUS-63" value="" style="endArrow=classic;html=1;rounded=0;fontSize=12;startSize=8;endSize=8;curved=1;noEdgeStyle=1;orthogonal=1;" parent="1" source="yxDpOZDk2D4iF1txQsUS-61" target="yxDpOZDk2D4iF1txQsUS-51" edge="1">
          <mxGeometry relative="1" as="geometry">
            <mxPoint x="-321" y="897" as="sourcePoint" />
            <mxPoint x="-221" y="897" as="targetPoint" />
            <Array as="points">
              <mxPoint x="420" y="2072" />
              <mxPoint x="522.75" y="2148" />
            </Array>
          </mxGeometry>
        </mxCell>
        <mxCell id="yxDpOZDk2D4iF1txQsUS-64" value="2" style="edgeLabel;resizable=0;html=1;align=center;verticalAlign=middle;fontSize=16;" parent="yxDpOZDk2D4iF1txQsUS-63" connectable="0" vertex="1">
          <mxGeometry relative="1" as="geometry" />
        </mxCell>
        <mxCell id="yxDpOZDk2D4iF1txQsUS-65" value="" style="endArrow=classic;html=1;rounded=0;fontSize=12;startSize=8;endSize=8;curved=1;noEdgeStyle=1;orthogonal=1;" parent="1" source="yxDpOZDk2D4iF1txQsUS-62" target="yxDpOZDk2D4iF1txQsUS-51" edge="1">
          <mxGeometry relative="1" as="geometry">
            <mxPoint x="-301" y="961" as="sourcePoint" />
            <mxPoint x="-201" y="961" as="targetPoint" />
            <Array as="points">
              <mxPoint x="600" y="2072" />
              <mxPoint x="577.75" y="2146" />
            </Array>
          </mxGeometry>
        </mxCell>
        <mxCell id="yxDpOZDk2D4iF1txQsUS-66" value="1" style="edgeLabel;resizable=0;html=1;align=center;verticalAlign=middle;fontSize=16;" parent="yxDpOZDk2D4iF1txQsUS-65" connectable="0" vertex="1">
          <mxGeometry relative="1" as="geometry" />
        </mxCell>
        <mxCell id="yxDpOZDk2D4iF1txQsUS-67" value="" style="endArrow=classic;html=1;rounded=0;fontSize=12;startSize=8;endSize=8;curved=1;noEdgeStyle=1;orthogonal=1;" parent="1" source="yxDpOZDk2D4iF1txQsUS-52" target="yxDpOZDk2D4iF1txQsUS-51" edge="1">
          <mxGeometry relative="1" as="geometry">
            <mxPoint x="-313" y="1027" as="sourcePoint" />
            <mxPoint x="-213" y="1027" as="targetPoint" />
            <Array as="points">
              <mxPoint x="822.5" y="632" />
              <mxPoint x="825" y="670" />
              <mxPoint x="825" y="850" />
              <mxPoint x="1035" y="850" />
              <mxPoint x="1035" y="1030" />
              <mxPoint x="1035" y="1030" />
              <mxPoint x="1035" y="1210" />
              <mxPoint x="1035" y="1210" />
              <mxPoint x="1035" y="1390" />
              <mxPoint x="1035" y="1390" />
              <mxPoint x="1035" y="1570" />
              <mxPoint x="1290" y="1570" />
              <mxPoint x="1290" y="1750" />
              <mxPoint x="1290" y="1750" />
              <mxPoint x="1290" y="1930" />
              <mxPoint x="1290" y="1930" />
              <mxPoint x="1290" y="2110" />
              <mxPoint x="605.25" y="2148" />
            </Array>
          </mxGeometry>
        </mxCell>
        <mxCell id="yxDpOZDk2D4iF1txQsUS-68" value="1" style="edgeLabel;resizable=0;html=1;align=center;verticalAlign=middle;fontSize=16;" parent="yxDpOZDk2D4iF1txQsUS-67" connectable="0" vertex="1">
          <mxGeometry relative="1" as="geometry" />
        </mxCell>
        <mxCell id="yxDpOZDk2D4iF1txQsUS-69" value="" style="endArrow=classic;html=1;rounded=0;fontSize=12;startSize=8;endSize=8;curved=1;noEdgeStyle=1;orthogonal=1;" parent="1" source="yxDpOZDk2D4iF1txQsUS-42" target="yxDpOZDk2D4iF1txQsUS-51" edge="1">
          <mxGeometry relative="1" as="geometry">
            <mxPoint x="-281" y="1085" as="sourcePoint" />
            <mxPoint x="-181" y="1085" as="targetPoint" />
            <Array as="points">
              <mxPoint x="437.5" y="1894" />
              <mxPoint x="510" y="1930" />
              <mxPoint x="510" y="2110" />
              <mxPoint x="550.25" y="2146" />
            </Array>
          </mxGeometry>
        </mxCell>
        <mxCell id="yxDpOZDk2D4iF1txQsUS-70" value="1" style="edgeLabel;resizable=0;html=1;align=center;verticalAlign=middle;fontSize=16;" parent="yxDpOZDk2D4iF1txQsUS-69" connectable="0" vertex="1">
          <mxGeometry relative="1" as="geometry" />
        </mxCell>
        <mxCell id="yxDpOZDk2D4iF1txQsUS-71" value="Petroleum" style="shape=cube;whiteSpace=wrap;html=1;boundedLbl=1;backgroundOutline=1;darkOpacity=0.05;darkOpacity2=0.1;fontSize=16;fillColor=#6d8764;fontColor=#ffffff;strokeColor=#3A5431;" parent="1" vertex="1">
          <mxGeometry x="840" y="1980" width="120" height="80" as="geometry" />
        </mxCell>
        <mxCell id="yxDpOZDk2D4iF1txQsUS-72" value="Glassware" style="shape=cube;whiteSpace=wrap;html=1;boundedLbl=1;backgroundOutline=1;darkOpacity=0.05;darkOpacity2=0.1;fontSize=16;fillColor=#d0cee2;strokeColor=#56517e;" parent="1" vertex="1">
          <mxGeometry x="570.9375" y="180" width="120" height="80" as="geometry" />
        </mxCell>
        <mxCell id="yxDpOZDk2D4iF1txQsUS-73" value="" style="endArrow=classic;html=1;rounded=0;fontSize=12;startSize=8;endSize=8;curved=1;noEdgeStyle=1;orthogonal=1;" parent="1" source="yxDpOZDk2D4iF1txQsUS-71" target="yxDpOZDk2D4iF1txQsUS-20" edge="1">
          <mxGeometry relative="1" as="geometry">
            <mxPoint x="-277" y="411" as="sourcePoint" />
            <mxPoint x="-177" y="411" as="targetPoint" />
            <Array as="points">
              <mxPoint x="886.25" y="1966" />
              <mxPoint x="555" y="1930" />
              <mxPoint x="555" y="1750" />
              <mxPoint x="525" y="1750" />
              <mxPoint x="525" y="1570" />
              <mxPoint x="495" y="1570" />
              <mxPoint x="495" y="1390" />
              <mxPoint x="495" y="1390" />
              <mxPoint x="495" y="1210" />
              <mxPoint x="435" y="1210" />
              <mxPoint x="435" y="1030" />
              <mxPoint x="585" y="1030" />
              <mxPoint x="585" y="850" />
              <mxPoint x="735" y="850" />
              <mxPoint x="735" y="670" />
              <mxPoint x="675" y="670" />
              <mxPoint x="675" y="490" />
              <mxPoint x="571.4285714285712" y="454" />
            </Array>
          </mxGeometry>
        </mxCell>
        <mxCell id="yxDpOZDk2D4iF1txQsUS-74" value="1" style="edgeLabel;resizable=0;html=1;align=center;verticalAlign=middle;fontSize=16;" parent="yxDpOZDk2D4iF1txQsUS-73" connectable="0" vertex="1">
          <mxGeometry relative="1" as="geometry" />
        </mxCell>
        <mxCell id="yxDpOZDk2D4iF1txQsUS-75" value="" style="endArrow=classic;html=1;rounded=0;fontSize=12;startSize=8;endSize=8;curved=1;noEdgeStyle=1;orthogonal=1;" parent="1" source="yxDpOZDk2D4iF1txQsUS-72" target="yxDpOZDk2D4iF1txQsUS-20" edge="1">
          <mxGeometry relative="1" as="geometry">
            <mxPoint x="-237" y="517" as="sourcePoint" />
            <mxPoint x="-137" y="517" as="targetPoint" />
            <Array as="points">
              <mxPoint x="594.2708333333334" y="272" />
              <mxPoint x="540" y="348" />
            </Array>
          </mxGeometry>
        </mxCell>
        <mxCell id="yxDpOZDk2D4iF1txQsUS-76" value="5" style="edgeLabel;resizable=0;html=1;align=center;verticalAlign=middle;fontSize=16;" parent="yxDpOZDk2D4iF1txQsUS-75" connectable="0" vertex="1">
          <mxGeometry relative="1" as="geometry" />
        </mxCell>
        <mxCell id="yxDpOZDk2D4iF1txQsUS-77" value="Iron Ingots" style="shape=cube;whiteSpace=wrap;html=1;boundedLbl=1;backgroundOutline=1;darkOpacity=0.05;darkOpacity2=0.1;fontSize=16;fillColor=#d0cee2;strokeColor=#56517e;" parent="1" vertex="1">
          <mxGeometry x="615" y="1440" width="120" height="80" as="geometry" />
        </mxCell>
        <mxCell id="yxDpOZDk2D4iF1txQsUS-78" value="" style="endArrow=classic;html=1;rounded=0;fontSize=12;startSize=8;endSize=8;curved=1;noEdgeStyle=1;orthogonal=1;" parent="1" source="yxDpOZDk2D4iF1txQsUS-77" target="yxDpOZDk2D4iF1txQsUS-19" edge="1">
          <mxGeometry relative="1" as="geometry">
            <mxPoint x="619" y="163" as="sourcePoint" />
            <mxPoint x="719" y="163" as="targetPoint" />
            <Array as="points">
              <mxPoint x="688.75" y="1534" />
              <mxPoint x="677.5" y="1608" />
            </Array>
          </mxGeometry>
        </mxCell>
        <mxCell id="yxDpOZDk2D4iF1txQsUS-79" value="10" style="edgeLabel;resizable=0;html=1;align=center;verticalAlign=middle;fontSize=16;" parent="yxDpOZDk2D4iF1txQsUS-78" connectable="0" vertex="1">
          <mxGeometry relative="1" as="geometry" />
        </mxCell>
        <mxCell id="yxDpOZDk2D4iF1txQsUS-80" value="" style="endArrow=classic;html=1;rounded=0;fontSize=12;startSize=8;endSize=8;curved=1;noEdgeStyle=1;orthogonal=1;" parent="1" source="yxDpOZDk2D4iF1txQsUS-33" target="yxDpOZDk2D4iF1txQsUS-19" edge="1">
          <mxGeometry relative="1" as="geometry">
            <mxPoint x="685" y="235" as="sourcePoint" />
            <mxPoint x="785" y="235" as="targetPoint" />
            <Array as="points">
              <mxPoint x="775.625" y="1354" />
              <mxPoint x="765" y="1390" />
              <mxPoint x="765" y="1570" />
              <mxPoint x="732.5" y="1608" />
            </Array>
          </mxGeometry>
        </mxCell>
        <mxCell id="yxDpOZDk2D4iF1txQsUS-81" value="1" style="edgeLabel;resizable=0;html=1;align=center;verticalAlign=middle;fontSize=16;" parent="yxDpOZDk2D4iF1txQsUS-80" connectable="0" vertex="1">
          <mxGeometry relative="1" as="geometry" />
        </mxCell>
        <mxCell id="yxDpOZDk2D4iF1txQsUS-82" value="Copper Ore" style="shape=cube;whiteSpace=wrap;html=1;boundedLbl=1;backgroundOutline=1;darkOpacity=0.05;darkOpacity2=0.1;fontSize=16;fillColor=#f8cecc;strokeColor=#b85450;" parent="1" vertex="1">
          <mxGeometry x="690" y="1980" width="120" height="80" as="geometry" />
        </mxCell>
        <mxCell id="yxDpOZDk2D4iF1txQsUS-83" value="" style="endArrow=classic;html=1;rounded=0;fontSize=12;startSize=8;endSize=8;curved=1;noEdgeStyle=1;orthogonal=1;" parent="1" source="yxDpOZDk2D4iF1txQsUS-82" target="yxDpOZDk2D4iF1txQsUS-30" edge="1">
          <mxGeometry relative="1" as="geometry">
            <mxPoint x="-311" y="585" as="sourcePoint" />
            <mxPoint x="-211" y="585" as="targetPoint" />
            <Array as="points">
              <mxPoint x="750" y="2072" />
              <mxPoint x="812.5" y="2148" />
            </Array>
          </mxGeometry>
        </mxCell>
        <mxCell id="yxDpOZDk2D4iF1txQsUS-84" value="2" style="edgeLabel;resizable=0;html=1;align=center;verticalAlign=middle;fontSize=16;" parent="yxDpOZDk2D4iF1txQsUS-83" connectable="0" vertex="1">
          <mxGeometry relative="1" as="geometry" />
        </mxCell>
        <mxCell id="yxDpOZDk2D4iF1txQsUS-85" value="" style="endArrow=classic;html=1;rounded=0;fontSize=12;startSize=8;endSize=8;curved=1;noEdgeStyle=1;orthogonal=1;" parent="1" source="yxDpOZDk2D4iF1txQsUS-33" target="yxDpOZDk2D4iF1txQsUS-30" edge="1">
          <mxGeometry relative="1" as="geometry">
            <mxPoint x="-273" y="671" as="sourcePoint" />
            <mxPoint x="-173" y="671" as="targetPoint" />
            <Array as="points">
              <mxPoint x="830.625" y="1356" />
              <mxPoint x="885" y="1390" />
              <mxPoint x="885" y="1570" />
              <mxPoint x="1065" y="1570" />
              <mxPoint x="1065" y="1750" />
              <mxPoint x="1065" y="1750" />
              <mxPoint x="1065" y="1930" />
              <mxPoint x="1230" y="1930" />
              <mxPoint x="1230" y="2110" />
              <mxPoint x="867.5" y="2148" />
            </Array>
          </mxGeometry>
        </mxCell>
        <mxCell id="yxDpOZDk2D4iF1txQsUS-86" value="1" style="edgeLabel;resizable=0;html=1;align=center;verticalAlign=middle;fontSize=16;" parent="yxDpOZDk2D4iF1txQsUS-85" connectable="0" vertex="1">
          <mxGeometry relative="1" as="geometry" />
        </mxCell>
        <mxCell id="yxDpOZDk2D4iF1txQsUS-87" value="Tin Pile" style="shape=cube;whiteSpace=wrap;html=1;boundedLbl=1;backgroundOutline=1;darkOpacity=0.05;darkOpacity2=0.1;fontSize=16;fillColor=#f8cecc;strokeColor=#b85450;" parent="1" vertex="1">
          <mxGeometry x="825" y="1800" width="120" height="80" as="geometry" />
        </mxCell>
        <mxCell id="yxDpOZDk2D4iF1txQsUS-88" value="" style="endArrow=classic;html=1;rounded=0;fontSize=12;startSize=8;endSize=8;curved=1;noEdgeStyle=1;orthogonal=1;" parent="1" source="yxDpOZDk2D4iF1txQsUS-87" target="yxDpOZDk2D4iF1txQsUS-31" edge="1">
          <mxGeometry relative="1" as="geometry">
            <mxPoint x="-209" y="377" as="sourcePoint" />
            <mxPoint x="-109" y="377" as="targetPoint" />
            <Array as="points">
              <mxPoint x="885" y="1892" />
              <mxPoint x="1050" y="1966" />
            </Array>
          </mxGeometry>
        </mxCell>
        <mxCell id="yxDpOZDk2D4iF1txQsUS-89" value="2" style="edgeLabel;resizable=0;html=1;align=center;verticalAlign=middle;fontSize=16;" parent="yxDpOZDk2D4iF1txQsUS-88" connectable="0" vertex="1">
          <mxGeometry relative="1" as="geometry" />
        </mxCell>
        <mxCell id="yxDpOZDk2D4iF1txQsUS-90" value="" style="endArrow=classic;html=1;rounded=0;fontSize=12;startSize=8;endSize=8;curved=1;noEdgeStyle=1;orthogonal=1;" parent="1" source="yxDpOZDk2D4iF1txQsUS-42" target="yxDpOZDk2D4iF1txQsUS-31" edge="1">
          <mxGeometry relative="1" as="geometry">
            <mxPoint x="-189" y="443" as="sourcePoint" />
            <mxPoint x="-89" y="443" as="targetPoint" />
            <Array as="points">
              <mxPoint x="510.83333333333326" y="1892" />
              <mxPoint x="1013.3333333333334" y="1968" />
            </Array>
          </mxGeometry>
        </mxCell>
        <mxCell id="yxDpOZDk2D4iF1txQsUS-91" value="1" style="edgeLabel;resizable=0;html=1;align=center;verticalAlign=middle;fontSize=16;" parent="yxDpOZDk2D4iF1txQsUS-90" connectable="0" vertex="1">
          <mxGeometry relative="1" as="geometry" />
        </mxCell>
        <mxCell id="yxDpOZDk2D4iF1txQsUS-92" value="" style="endArrow=classic;html=1;rounded=0;fontSize=12;startSize=8;endSize=8;curved=1;noEdgeStyle=1;orthogonal=1;" parent="1" source="yxDpOZDk2D4iF1txQsUS-33" target="yxDpOZDk2D4iF1txQsUS-31" edge="1">
          <mxGeometry relative="1" as="geometry">
            <mxPoint x="-161" y="535" as="sourcePoint" />
            <mxPoint x="-61" y="535" as="targetPoint" />
            <Array as="points">
              <mxPoint x="844.375" y="1354" />
              <mxPoint x="915" y="1390" />
              <mxPoint x="915" y="1570" />
              <mxPoint x="1095" y="1570" />
              <mxPoint x="1095" y="1750" />
              <mxPoint x="1095" y="1750" />
              <mxPoint x="1095" y="1930" />
              <mxPoint x="1086.6666666666667" y="1968" />
            </Array>
          </mxGeometry>
        </mxCell>
        <mxCell id="yxDpOZDk2D4iF1txQsUS-93" value="1" style="edgeLabel;resizable=0;html=1;align=center;verticalAlign=middle;fontSize=16;" parent="yxDpOZDk2D4iF1txQsUS-92" connectable="0" vertex="1">
          <mxGeometry relative="1" as="geometry" />
        </mxCell>
        <mxCell id="yxDpOZDk2D4iF1txQsUS-95" value="Soda Ash" style="shape=cube;whiteSpace=wrap;html=1;boundedLbl=1;backgroundOutline=1;darkOpacity=0.05;darkOpacity2=0.1;fontSize=16;" parent="1" vertex="1">
          <mxGeometry x="570.9375" width="120" height="80" as="geometry" />
        </mxCell>
        <mxCell id="yxDpOZDk2D4iF1txQsUS-96" value="" style="endArrow=classic;html=1;rounded=0;fontSize=12;startSize=8;endSize=8;curved=1;noEdgeStyle=1;orthogonal=1;" parent="1" source="yxDpOZDk2D4iF1txQsUS-95" target="yxDpOZDk2D4iF1txQsUS-72" edge="1">
          <mxGeometry relative="1" as="geometry">
            <mxPoint x="-393" y="1155" as="sourcePoint" />
            <mxPoint x="-293" y="1155" as="targetPoint" />
            <Array as="points">
              <mxPoint x="630.9375" y="92" />
              <mxPoint x="630.9375" y="168" />
            </Array>
          </mxGeometry>
        </mxCell>
        <mxCell id="yxDpOZDk2D4iF1txQsUS-97" value="1" style="edgeLabel;resizable=0;html=1;align=center;verticalAlign=middle;fontSize=16;" parent="yxDpOZDk2D4iF1txQsUS-96" connectable="0" vertex="1">
          <mxGeometry relative="1" as="geometry" />
        </mxCell>
        <mxCell id="yxDpOZDk2D4iF1txQsUS-98" value="" style="endArrow=classic;html=1;rounded=0;fontSize=12;startSize=8;endSize=8;curved=1;noEdgeStyle=1;orthogonal=1;" parent="1" source="yxDpOZDk2D4iF1txQsUS-62" target="yxDpOZDk2D4iF1txQsUS-72" edge="1">
          <mxGeometry relative="1" as="geometry">
            <mxPoint x="-411" y="1227" as="sourcePoint" />
            <mxPoint x="-311" y="1227" as="targetPoint" />
            <Array as="points">
              <mxPoint x="600" y="1966" />
              <mxPoint x="585" y="1930" />
              <mxPoint x="585" y="1750" />
              <mxPoint x="555" y="1750" />
              <mxPoint x="555" y="1570" />
              <mxPoint x="525" y="1570" />
              <mxPoint x="525" y="1390" />
              <mxPoint x="525" y="1390" />
              <mxPoint x="525" y="1210" />
              <mxPoint x="465" y="1210" />
              <mxPoint x="465" y="1030" />
              <mxPoint x="615" y="1030" />
              <mxPoint x="615" y="850" />
              <mxPoint x="765" y="850" />
              <mxPoint x="765" y="670" />
              <mxPoint x="705" y="670" />
              <mxPoint x="705" y="490" />
              <mxPoint x="630" y="490" />
              <mxPoint x="630" y="310" />
              <mxPoint x="630.9375" y="274" />
            </Array>
          </mxGeometry>
        </mxCell>
        <mxCell id="yxDpOZDk2D4iF1txQsUS-99" value="10" style="edgeLabel;resizable=0;html=1;align=center;verticalAlign=middle;fontSize=16;" parent="yxDpOZDk2D4iF1txQsUS-98" connectable="0" vertex="1">
          <mxGeometry relative="1" as="geometry" />
        </mxCell>
        <mxCell id="yxDpOZDk2D4iF1txQsUS-100" value="" style="endArrow=classic;html=1;rounded=0;fontSize=12;startSize=8;endSize=8;curved=1;noEdgeStyle=1;orthogonal=1;" parent="1" source="yxDpOZDk2D4iF1txQsUS-33" target="yxDpOZDk2D4iF1txQsUS-72" edge="1">
          <mxGeometry relative="1" as="geometry">
            <mxPoint x="-347" y="1207" as="sourcePoint" />
            <mxPoint x="-247" y="1207" as="targetPoint" />
            <Array as="points">
              <mxPoint x="837.5" y="1248" />
              <mxPoint x="1065" y="1210" />
              <mxPoint x="1065" y="1030" />
              <mxPoint x="1065" y="1030" />
              <mxPoint x="1065" y="850" />
              <mxPoint x="855" y="850" />
              <mxPoint x="855" y="670" />
              <mxPoint x="885" y="670" />
              <mxPoint x="885" y="490" />
              <mxPoint x="885" y="490" />
              <mxPoint x="885" y="310" />
              <mxPoint x="667.6041666666666" y="272" />
            </Array>
          </mxGeometry>
        </mxCell>
        <mxCell id="yxDpOZDk2D4iF1txQsUS-101" value="5" style="edgeLabel;resizable=0;html=1;align=center;verticalAlign=middle;fontSize=16;" parent="yxDpOZDk2D4iF1txQsUS-100" connectable="0" vertex="1">
          <mxGeometry relative="1" as="geometry" />
        </mxCell>
        <mxCell id="yxDpOZDk2D4iF1txQsUS-102" value="Iron Ore" style="shape=cube;whiteSpace=wrap;html=1;boundedLbl=1;backgroundOutline=1;darkOpacity=0.05;darkOpacity2=0.1;fontSize=16;fillColor=#f8cecc;strokeColor=#b85450;" parent="1" vertex="1">
          <mxGeometry x="675" y="1080" width="120" height="80" as="geometry" />
        </mxCell>
        <mxCell id="yxDpOZDk2D4iF1txQsUS-103" value="" style="endArrow=classic;html=1;rounded=0;fontSize=12;startSize=8;endSize=8;curved=1;noEdgeStyle=1;orthogonal=1;" parent="1" source="yxDpOZDk2D4iF1txQsUS-102" target="yxDpOZDk2D4iF1txQsUS-77" edge="1">
          <mxGeometry relative="1" as="geometry">
            <mxPoint x="-205" y="557" as="sourcePoint" />
            <mxPoint x="-105" y="557" as="targetPoint" />
            <Array as="points">
              <mxPoint x="735" y="1172" />
              <mxPoint x="690" y="1210" />
              <mxPoint x="690" y="1390" />
              <mxPoint x="638.3333333333334" y="1428" />
            </Array>
          </mxGeometry>
        </mxCell>
        <mxCell id="yxDpOZDk2D4iF1txQsUS-104" value="2" style="edgeLabel;resizable=0;html=1;align=center;verticalAlign=middle;fontSize=16;" parent="yxDpOZDk2D4iF1txQsUS-103" connectable="0" vertex="1">
          <mxGeometry relative="1" as="geometry" />
        </mxCell>
        <mxCell id="yxDpOZDk2D4iF1txQsUS-105" value="" style="endArrow=classic;html=1;rounded=0;fontSize=12;startSize=8;endSize=8;curved=1;noEdgeStyle=1;orthogonal=1;" parent="1" source="yxDpOZDk2D4iF1txQsUS-33" target="yxDpOZDk2D4iF1txQsUS-77" edge="1">
          <mxGeometry relative="1" as="geometry">
            <mxPoint x="-187" y="641" as="sourcePoint" />
            <mxPoint x="-87" y="641" as="targetPoint" />
            <Array as="points">
              <mxPoint x="761.875" y="1352" />
              <mxPoint x="711.6666666666666" y="1428" />
            </Array>
          </mxGeometry>
        </mxCell>
        <mxCell id="yxDpOZDk2D4iF1txQsUS-106" value="1" style="edgeLabel;resizable=0;html=1;align=center;verticalAlign=middle;fontSize=16;" parent="yxDpOZDk2D4iF1txQsUS-105" connectable="0" vertex="1">
          <mxGeometry relative="1" as="geometry" />
        </mxCell>
        <mxCell id="yxDpOZDk2D4iF1txQsUS-107" value="Oakwood Planks" style="shape=cube;whiteSpace=wrap;html=1;boundedLbl=1;backgroundOutline=1;darkOpacity=0.05;darkOpacity2=0.1;fontSize=16;fillColor=#ffe6cc;strokeColor=#d79b00;" parent="1" vertex="1">
          <mxGeometry x="465" y="540" width="120" height="80" as="geometry" />
        </mxCell>
        <mxCell id="yxDpOZDk2D4iF1txQsUS-108" value="" style="endArrow=classic;html=1;rounded=0;fontSize=12;startSize=8;endSize=8;curved=1;noEdgeStyle=1;orthogonal=1;" parent="1" source="yxDpOZDk2D4iF1txQsUS-107" target="yxDpOZDk2D4iF1txQsUS-21" edge="1">
          <mxGeometry relative="1" as="geometry">
            <mxPoint x="-271" y="983" as="sourcePoint" />
            <mxPoint x="-171" y="983" as="targetPoint" />
            <Array as="points">
              <mxPoint x="481" y="632" />
              <mxPoint x="402.5" y="708" />
            </Array>
          </mxGeometry>
        </mxCell>
        <mxCell id="yxDpOZDk2D4iF1txQsUS-109" value="3" style="edgeLabel;resizable=0;html=1;align=center;verticalAlign=middle;fontSize=16;" parent="yxDpOZDk2D4iF1txQsUS-108" connectable="0" vertex="1">
          <mxGeometry relative="1" as="geometry" />
        </mxCell>
        <mxCell id="yxDpOZDk2D4iF1txQsUS-110" value="" style="endArrow=classic;html=1;rounded=0;fontSize=12;startSize=8;endSize=8;curved=1;noEdgeStyle=1;orthogonal=1;" parent="1" source="yxDpOZDk2D4iF1txQsUS-20" target="yxDpOZDk2D4iF1txQsUS-21" edge="1">
          <mxGeometry relative="1" as="geometry">
            <mxPoint x="-363" y="1049" as="sourcePoint" />
            <mxPoint x="-263" y="1049" as="targetPoint" />
            <Array as="points">
              <mxPoint x="508.57142857142856" y="454" />
              <mxPoint x="435" y="490" />
              <mxPoint x="435" y="670" />
              <mxPoint x="347.5" y="708" />
            </Array>
          </mxGeometry>
        </mxCell>
        <mxCell id="yxDpOZDk2D4iF1txQsUS-111" value="1" style="edgeLabel;resizable=0;html=1;align=center;verticalAlign=middle;fontSize=16;" parent="yxDpOZDk2D4iF1txQsUS-110" connectable="0" vertex="1">
          <mxGeometry relative="1" as="geometry" />
        </mxCell>
        <mxCell id="yxDpOZDk2D4iF1txQsUS-112" value="Oakwood Logs" style="shape=cube;whiteSpace=wrap;html=1;boundedLbl=1;backgroundOutline=1;darkOpacity=0.05;darkOpacity2=0.1;fontSize=16;fillColor=#d5e8d4;strokeColor=#82b366;" parent="1" vertex="1">
          <mxGeometry x="213.75" y="1800" width="120" height="80" as="geometry" />
        </mxCell>
        <mxCell id="yxDpOZDk2D4iF1txQsUS-113" value="" style="endArrow=classic;html=1;rounded=0;fontSize=12;startSize=8;endSize=8;curved=1;noEdgeStyle=1;orthogonal=1;" parent="1" source="yxDpOZDk2D4iF1txQsUS-112" target="yxDpOZDk2D4iF1txQsUS-107" edge="1">
          <mxGeometry relative="1" as="geometry">
            <mxPoint x="-167" y="1055" as="sourcePoint" />
            <mxPoint x="-67" y="1055" as="targetPoint" />
            <Array as="points">
              <mxPoint x="246.25" y="1788" />
              <mxPoint x="195" y="1750" />
              <mxPoint x="195" y="1570" />
              <mxPoint x="315" y="1570" />
              <mxPoint x="315" y="1390" />
              <mxPoint x="315" y="1390" />
              <mxPoint x="315" y="1210" />
              <mxPoint x="315" y="1210" />
              <mxPoint x="315" y="1030" />
              <mxPoint x="315" y="1030" />
              <mxPoint x="315" y="850" />
              <mxPoint x="525" y="850" />
              <mxPoint x="525" y="670" />
              <mxPoint x="547" y="634" />
            </Array>
          </mxGeometry>
        </mxCell>
        <mxCell id="yxDpOZDk2D4iF1txQsUS-114" value="1" style="edgeLabel;resizable=0;html=1;align=center;verticalAlign=middle;fontSize=16;" parent="yxDpOZDk2D4iF1txQsUS-113" connectable="0" vertex="1">
          <mxGeometry relative="1" as="geometry" />
        </mxCell>
        <mxCell id="yxDpOZDk2D4iF1txQsUS-115" value="" style="endArrow=classic;html=1;rounded=0;fontSize=12;startSize=8;endSize=8;curved=1;noEdgeStyle=1;orthogonal=1;" parent="1" source="yxDpOZDk2D4iF1txQsUS-20" target="yxDpOZDk2D4iF1txQsUS-107" edge="1">
          <mxGeometry relative="1" as="geometry">
            <mxPoint x="-167" y="1135" as="sourcePoint" />
            <mxPoint x="-67" y="1135" as="targetPoint" />
            <Array as="points">
              <mxPoint x="524.2857142857142" y="456" />
              <mxPoint x="525" y="528" />
            </Array>
          </mxGeometry>
        </mxCell>
        <mxCell id="yxDpOZDk2D4iF1txQsUS-116" value="3" style="edgeLabel;resizable=0;html=1;align=center;verticalAlign=middle;fontSize=16;" parent="yxDpOZDk2D4iF1txQsUS-115" connectable="0" vertex="1">
          <mxGeometry relative="1" as="geometry" />
        </mxCell>
        <mxCell id="yxDpOZDk2D4iF1txQsUS-118" value="Lumberjack Tools" style="shape=cube;whiteSpace=wrap;html=1;boundedLbl=1;backgroundOutline=1;darkOpacity=0.05;darkOpacity2=0.1;fontSize=16;fillColor=#e1d5e7;strokeColor=#9673a6;" parent="1" vertex="1">
          <mxGeometry x="225" y="1620" width="120" height="80" as="geometry" />
        </mxCell>
        <mxCell id="yxDpOZDk2D4iF1txQsUS-119" value="" style="endArrow=classic;html=1;rounded=0;fontSize=12;startSize=8;endSize=8;curved=1;noEdgeStyle=1;orthogonal=1;" parent="1" source="yxDpOZDk2D4iF1txQsUS-118" target="yxDpOZDk2D4iF1txQsUS-112" edge="1">
          <mxGeometry relative="1" as="geometry">
            <mxPoint x="492" y="1188" as="sourcePoint" />
            <mxPoint x="592" y="1188" as="targetPoint" />
            <Array as="points">
              <mxPoint x="285" y="1712" />
              <mxPoint x="301.25" y="1788" />
            </Array>
          </mxGeometry>
        </mxCell>
        <mxCell id="yxDpOZDk2D4iF1txQsUS-120" value="3" style="edgeLabel;resizable=0;html=1;align=center;verticalAlign=middle;fontSize=16;" parent="yxDpOZDk2D4iF1txQsUS-119" connectable="0" vertex="1">
          <mxGeometry relative="1" as="geometry" />
        </mxCell>
        <mxCell id="yxDpOZDk2D4iF1txQsUS-122" value="Crude Oil" style="shape=cube;whiteSpace=wrap;html=1;boundedLbl=1;backgroundOutline=1;darkOpacity=0.05;darkOpacity2=0.1;fontSize=16;fillColor=#f5f5f5;fontColor=#333333;strokeColor=#666666;" parent="1" vertex="1">
          <mxGeometry x="495" y="1080" width="120" height="80" as="geometry" />
        </mxCell>
        <mxCell id="yxDpOZDk2D4iF1txQsUS-123" value="" style="endArrow=classic;html=1;rounded=0;fontSize=12;startSize=8;endSize=8;curved=1;noEdgeStyle=1;orthogonal=1;" parent="1" source="yxDpOZDk2D4iF1txQsUS-122" target="yxDpOZDk2D4iF1txQsUS-71" edge="1">
          <mxGeometry relative="1" as="geometry">
            <mxPoint x="444" y="1364" as="sourcePoint" />
            <mxPoint x="544" y="1364" as="targetPoint" />
            <Array as="points">
              <mxPoint x="555" y="1172" />
              <mxPoint x="555" y="1210" />
              <mxPoint x="555" y="1390" />
              <mxPoint x="555" y="1390" />
              <mxPoint x="555" y="1570" />
              <mxPoint x="585" y="1570" />
              <mxPoint x="585" y="1750" />
              <mxPoint x="615" y="1750" />
              <mxPoint x="615" y="1930" />
              <mxPoint x="913.75" y="1966" />
            </Array>
          </mxGeometry>
        </mxCell>
        <mxCell id="yxDpOZDk2D4iF1txQsUS-124" value="1" style="edgeLabel;resizable=0;html=1;align=center;verticalAlign=middle;fontSize=16;" parent="yxDpOZDk2D4iF1txQsUS-123" connectable="0" vertex="1">
          <mxGeometry relative="1" as="geometry" />
        </mxCell>
        <mxCell id="yxDpOZDk2D4iF1txQsUS-125" value="" style="endArrow=classic;html=1;rounded=0;fontSize=12;startSize=8;endSize=8;curved=1;noEdgeStyle=1;orthogonal=1;" parent="1" source="yxDpOZDk2D4iF1txQsUS-42" target="yxDpOZDk2D4iF1txQsUS-71" edge="1">
          <mxGeometry relative="1" as="geometry">
            <mxPoint x="228" y="1307" as="sourcePoint" />
            <mxPoint x="328" y="1307" as="targetPoint" />
            <Array as="points">
              <mxPoint x="492.49999999999994" y="1894" />
              <mxPoint x="858.75" y="1968" />
            </Array>
          </mxGeometry>
        </mxCell>
        <mxCell id="yxDpOZDk2D4iF1txQsUS-126" value="4" style="edgeLabel;resizable=0;html=1;align=center;verticalAlign=middle;fontSize=16;" parent="yxDpOZDk2D4iF1txQsUS-125" connectable="0" vertex="1">
          <mxGeometry relative="1" as="geometry" />
        </mxCell>
        <mxCell id="yxDpOZDk2D4iF1txQsUS-127" value="" style="endArrow=classic;html=1;rounded=0;fontSize=12;startSize=8;endSize=8;curved=1;noEdgeStyle=1;orthogonal=1;" parent="1" source="yxDpOZDk2D4iF1txQsUS-33" target="yxDpOZDk2D4iF1txQsUS-71" edge="1">
          <mxGeometry relative="1" as="geometry">
            <mxPoint x="299" y="1414" as="sourcePoint" />
            <mxPoint x="399" y="1414" as="targetPoint" />
            <Array as="points">
              <mxPoint x="858.125" y="1352" />
              <mxPoint x="945" y="1390" />
              <mxPoint x="945" y="1570" />
              <mxPoint x="1125" y="1570" />
              <mxPoint x="1125" y="1750" />
              <mxPoint x="1125" y="1750" />
              <mxPoint x="1125" y="1930" />
              <mxPoint x="941.25" y="1968" />
            </Array>
          </mxGeometry>
        </mxCell>
        <mxCell id="yxDpOZDk2D4iF1txQsUS-128" value="3" style="edgeLabel;resizable=0;html=1;align=center;verticalAlign=middle;fontSize=16;" parent="yxDpOZDk2D4iF1txQsUS-127" connectable="0" vertex="1">
          <mxGeometry relative="1" as="geometry" />
        </mxCell>
        <mxCell id="yxDpOZDk2D4iF1txQsUS-129" value="Extraction Tools" style="shape=cube;whiteSpace=wrap;html=1;boundedLbl=1;backgroundOutline=1;darkOpacity=0.05;darkOpacity2=0.1;fontSize=16;fillColor=#b0e3e6;strokeColor=#0e8088;" parent="1" vertex="1">
          <mxGeometry x="675" y="900" width="120" height="80" as="geometry" />
        </mxCell>
        <mxCell id="yxDpOZDk2D4iF1txQsUS-130" value="" style="endArrow=classic;html=1;rounded=0;fontSize=12;startSize=8;endSize=8;curved=1;noEdgeStyle=1;orthogonal=1;" parent="1" source="yxDpOZDk2D4iF1txQsUS-129" target="yxDpOZDk2D4iF1txQsUS-122" edge="1">
          <mxGeometry relative="1" as="geometry">
            <mxPoint x="-227" y="878" as="sourcePoint" />
            <mxPoint x="-127" y="878" as="targetPoint" />
            <Array as="points">
              <mxPoint x="691" y="992" />
              <mxPoint x="555" y="1068" />
            </Array>
          </mxGeometry>
        </mxCell>
        <mxCell id="yxDpOZDk2D4iF1txQsUS-131" value="2" style="edgeLabel;resizable=0;html=1;align=center;verticalAlign=middle;fontSize=16;" parent="yxDpOZDk2D4iF1txQsUS-130" connectable="0" vertex="1">
          <mxGeometry relative="1" as="geometry" />
        </mxCell>
        <mxCell id="yxDpOZDk2D4iF1txQsUS-134" value="Gathering Tools" style="shape=cube;whiteSpace=wrap;html=1;boundedLbl=1;backgroundOutline=1;darkOpacity=0.05;darkOpacity2=0.1;fontSize=16;fillColor=#b0e3e6;strokeColor=#0e8088;" parent="1" vertex="1">
          <mxGeometry x="795" y="1620" width="120" height="80" as="geometry" />
        </mxCell>
        <mxCell id="yxDpOZDk2D4iF1txQsUS-135" value="" style="endArrow=classic;html=1;rounded=0;fontSize=12;startSize=8;endSize=8;curved=1;noEdgeStyle=1;orthogonal=1;" parent="1" source="yxDpOZDk2D4iF1txQsUS-134" target="yxDpOZDk2D4iF1txQsUS-87" edge="1">
          <mxGeometry relative="1" as="geometry">
            <mxPoint x="-305" y="715" as="sourcePoint" />
            <mxPoint x="-205" y="715" as="targetPoint" />
            <Array as="points">
              <mxPoint x="882.5" y="1712" />
              <mxPoint x="885" y="1788" />
            </Array>
          </mxGeometry>
        </mxCell>
        <mxCell id="yxDpOZDk2D4iF1txQsUS-136" value="1" style="edgeLabel;resizable=0;html=1;align=center;verticalAlign=middle;fontSize=16;" parent="yxDpOZDk2D4iF1txQsUS-135" connectable="0" vertex="1">
          <mxGeometry relative="1" as="geometry" />
        </mxCell>
        <mxCell id="yxDpOZDk2D4iF1txQsUS-137" value="" style="endArrow=classic;html=1;rounded=0;fontSize=12;startSize=8;endSize=8;curved=1;noEdgeStyle=1;orthogonal=1;" parent="1" source="yxDpOZDk2D4iF1txQsUS-129" target="yxDpOZDk2D4iF1txQsUS-82" edge="1">
          <mxGeometry relative="1" as="geometry">
            <mxPoint x="-283" y="1093" as="sourcePoint" />
            <mxPoint x="-183" y="1093" as="targetPoint" />
            <Array as="points">
              <mxPoint x="713" y="994" />
              <mxPoint x="645" y="1030" />
              <mxPoint x="645" y="1210" />
              <mxPoint x="645" y="1210" />
              <mxPoint x="645" y="1390" />
              <mxPoint x="585" y="1390" />
              <mxPoint x="585" y="1570" />
              <mxPoint x="615" y="1570" />
              <mxPoint x="615" y="1750" />
              <mxPoint x="645" y="1750" />
              <mxPoint x="645" y="1930" />
              <mxPoint x="777.5" y="1968" />
            </Array>
          </mxGeometry>
        </mxCell>
        <mxCell id="yxDpOZDk2D4iF1txQsUS-138" value="1" style="edgeLabel;resizable=0;html=1;align=center;verticalAlign=middle;fontSize=16;" parent="yxDpOZDk2D4iF1txQsUS-137" connectable="0" vertex="1">
          <mxGeometry relative="1" as="geometry" />
        </mxCell>
        <mxCell id="yxDpOZDk2D4iF1txQsUS-139" value="" style="endArrow=classic;html=1;rounded=0;fontSize=12;startSize=8;endSize=8;curved=1;noEdgeStyle=1;orthogonal=1;" parent="1" source="yxDpOZDk2D4iF1txQsUS-42" target="yxDpOZDk2D4iF1txQsUS-82" edge="1">
          <mxGeometry relative="1" as="geometry">
            <mxPoint x="-255" y="815" as="sourcePoint" />
            <mxPoint x="-155" y="815" as="targetPoint" />
            <Array as="points">
              <mxPoint x="474.16666666666663" y="1896" />
              <mxPoint x="722.5" y="1968" />
            </Array>
          </mxGeometry>
        </mxCell>
        <mxCell id="yxDpOZDk2D4iF1txQsUS-140" value="5" style="edgeLabel;resizable=0;html=1;align=center;verticalAlign=middle;fontSize=16;" parent="yxDpOZDk2D4iF1txQsUS-139" connectable="0" vertex="1">
          <mxGeometry relative="1" as="geometry" />
        </mxCell>
        <mxCell id="yxDpOZDk2D4iF1txQsUS-141" value="" style="endArrow=classic;html=1;rounded=0;fontSize=12;startSize=8;endSize=8;curved=1;noEdgeStyle=1;orthogonal=1;" parent="1" source="yxDpOZDk2D4iF1txQsUS-129" target="yxDpOZDk2D4iF1txQsUS-102" edge="1">
          <mxGeometry relative="1" as="geometry">
            <mxPoint x="879" y="-225" as="sourcePoint" />
            <mxPoint x="979" y="-225" as="targetPoint" />
            <Array as="points">
              <mxPoint x="735" y="996" />
              <mxPoint x="735" y="1068" />
            </Array>
          </mxGeometry>
        </mxCell>
        <mxCell id="yxDpOZDk2D4iF1txQsUS-142" value="2" style="edgeLabel;resizable=0;html=1;align=center;verticalAlign=middle;fontSize=16;" parent="yxDpOZDk2D4iF1txQsUS-141" connectable="0" vertex="1">
          <mxGeometry relative="1" as="geometry" />
        </mxCell>
        <mxCell id="yxDpOZDk2D4iF1txQsUS-143" value="" style="endArrow=classic;html=1;rounded=0;fontSize=12;startSize=8;endSize=8;curved=1;noEdgeStyle=1;orthogonal=1;" parent="1" source="yxDpOZDk2D4iF1txQsUS-19" target="yxDpOZDk2D4iF1txQsUS-4" edge="1">
          <mxGeometry relative="1" as="geometry">
            <mxPoint x="279" y="819" as="sourcePoint" />
            <mxPoint x="379" y="819" as="targetPoint" />
            <Array as="points">
              <mxPoint x="705" y="1712" />
              <mxPoint x="160.41666666666666" y="1788" />
            </Array>
          </mxGeometry>
        </mxCell>
        <mxCell id="yxDpOZDk2D4iF1txQsUS-144" value="3" style="edgeLabel;resizable=0;html=1;align=center;verticalAlign=middle;fontSize=16;" parent="yxDpOZDk2D4iF1txQsUS-143" connectable="0" vertex="1">
          <mxGeometry relative="1" as="geometry" />
        </mxCell>
        <mxCell id="yxDpOZDk2D4iF1txQsUS-146" value="Coal Chunk" style="shape=cube;whiteSpace=wrap;html=1;boundedLbl=1;backgroundOutline=1;darkOpacity=0.05;darkOpacity2=0.1;fontSize=16;fillColor=#f8cecc;strokeColor=#b85450;" parent="1" vertex="1">
          <mxGeometry x="855" y="1080" width="120" height="80" as="geometry" />
        </mxCell>
        <mxCell id="yxDpOZDk2D4iF1txQsUS-147" value="" style="endArrow=classic;html=1;rounded=0;fontSize=12;startSize=8;endSize=8;curved=1;noEdgeStyle=1;orthogonal=1;" parent="1" source="yxDpOZDk2D4iF1txQsUS-146" target="yxDpOZDk2D4iF1txQsUS-33" edge="1">
          <mxGeometry relative="1" as="geometry">
            <mxPoint x="-167" y="-127" as="sourcePoint" />
            <mxPoint x="-67" y="-127" as="targetPoint" />
            <Array as="points">
              <mxPoint x="915" y="1172" />
              <mxPoint x="782.5" y="1248" />
            </Array>
          </mxGeometry>
        </mxCell>
        <mxCell id="yxDpOZDk2D4iF1txQsUS-148" value="5" style="edgeLabel;resizable=0;html=1;align=center;verticalAlign=middle;fontSize=16;" parent="yxDpOZDk2D4iF1txQsUS-147" connectable="0" vertex="1">
          <mxGeometry relative="1" as="geometry" />
        </mxCell>
        <mxCell id="yxDpOZDk2D4iF1txQsUS-149" value="" style="endArrow=classic;html=1;rounded=0;fontSize=12;startSize=8;endSize=8;curved=1;noEdgeStyle=1;orthogonal=1;" parent="1" source="yxDpOZDk2D4iF1txQsUS-129" target="yxDpOZDk2D4iF1txQsUS-146" edge="1">
          <mxGeometry relative="1" as="geometry">
            <mxPoint x="913" y="-257" as="sourcePoint" />
            <mxPoint x="1013" y="-257" as="targetPoint" />
            <Array as="points">
              <mxPoint x="779" y="992" />
              <mxPoint x="915" y="1068" />
            </Array>
          </mxGeometry>
        </mxCell>
        <mxCell id="yxDpOZDk2D4iF1txQsUS-150" value="1" style="edgeLabel;resizable=0;html=1;align=center;verticalAlign=middle;fontSize=16;" parent="yxDpOZDk2D4iF1txQsUS-149" connectable="0" vertex="1">
          <mxGeometry relative="1" as="geometry" />
        </mxCell>
        <mxCell id="yxDpOZDk2D4iF1txQsUS-151" value="Sand Pile" style="shape=cube;whiteSpace=wrap;html=1;boundedLbl=1;backgroundOutline=1;darkOpacity=0.05;darkOpacity2=0.1;fontSize=16;" parent="1" vertex="1">
          <mxGeometry x="675" y="1800" width="120" height="80" as="geometry" />
        </mxCell>
        <mxCell id="yxDpOZDk2D4iF1txQsUS-153" value="" style="endArrow=classic;html=1;rounded=0;fontSize=12;startSize=8;endSize=8;curved=1;noEdgeStyle=1;orthogonal=1;" parent="1" source="yxDpOZDk2D4iF1txQsUS-151" target="yxDpOZDk2D4iF1txQsUS-62" edge="1">
          <mxGeometry relative="1" as="geometry">
            <mxPoint x="213" y="-203" as="sourcePoint" />
            <mxPoint x="313" y="-203" as="targetPoint" />
            <Array as="points">
              <mxPoint x="735" y="1892" />
              <mxPoint x="636.6666666666666" y="1968" />
            </Array>
          </mxGeometry>
        </mxCell>
        <mxCell id="yxDpOZDk2D4iF1txQsUS-154" value="4" style="edgeLabel;resizable=0;html=1;align=center;verticalAlign=middle;fontSize=16;" parent="yxDpOZDk2D4iF1txQsUS-153" connectable="0" vertex="1">
          <mxGeometry relative="1" as="geometry" />
        </mxCell>
        <mxCell id="yxDpOZDk2D4iF1txQsUS-155" value="" style="endArrow=classic;html=1;rounded=0;fontSize=12;startSize=8;endSize=8;curved=1;noEdgeStyle=1;orthogonal=1;" parent="1" source="yxDpOZDk2D4iF1txQsUS-42" target="yxDpOZDk2D4iF1txQsUS-62" edge="1">
          <mxGeometry relative="1" as="geometry">
            <mxPoint x="739" y="-181" as="sourcePoint" />
            <mxPoint x="839" y="-181" as="targetPoint" />
            <Array as="points">
              <mxPoint x="455.8333333333333" y="1896" />
              <mxPoint x="563.3333333333334" y="1968" />
            </Array>
          </mxGeometry>
        </mxCell>
        <mxCell id="yxDpOZDk2D4iF1txQsUS-156" value="2" style="edgeLabel;resizable=0;html=1;align=center;verticalAlign=middle;fontSize=16;" parent="yxDpOZDk2D4iF1txQsUS-155" connectable="0" vertex="1">
          <mxGeometry relative="1" as="geometry" />
        </mxCell>
        <mxCell id="yxDpOZDk2D4iF1txQsUS-157" value="" style="endArrow=classic;html=1;rounded=0;fontSize=12;startSize=8;endSize=8;curved=1;noEdgeStyle=1;orthogonal=1;" parent="1" source="yxDpOZDk2D4iF1txQsUS-134" target="yxDpOZDk2D4iF1txQsUS-151" edge="1">
          <mxGeometry relative="1" as="geometry">
            <mxPoint x="1031" y="-127" as="sourcePoint" />
            <mxPoint x="1131" y="-127" as="targetPoint" />
            <Array as="points">
              <mxPoint x="827.5" y="1712" />
              <mxPoint x="735" y="1788" />
            </Array>
          </mxGeometry>
        </mxCell>
        <mxCell id="yxDpOZDk2D4iF1txQsUS-158" value="2" style="edgeLabel;resizable=0;html=1;align=center;verticalAlign=middle;fontSize=16;" parent="yxDpOZDk2D4iF1txQsUS-157" connectable="0" vertex="1">
          <mxGeometry relative="1" as="geometry" />
        </mxCell>
        <mxCell id="yxDpOZDk2D4iF1txQsUS-159" value="Empty Crates" style="shape=cube;whiteSpace=wrap;html=1;boundedLbl=1;backgroundOutline=1;darkOpacity=0.05;darkOpacity2=0.1;fontSize=16;fillColor=#ffe6cc;strokeColor=#d79b00;" parent="1" vertex="1">
          <mxGeometry x="555" y="720" width="120" height="80" as="geometry" />
        </mxCell>
        <mxCell id="yxDpOZDk2D4iF1txQsUS-160" value="Oakwood Shafts" style="shape=cube;whiteSpace=wrap;html=1;boundedLbl=1;backgroundOutline=1;darkOpacity=0.05;darkOpacity2=0.1;fontSize=16;fillColor=#ffe6cc;strokeColor=#d79b00;" parent="1" vertex="1">
          <mxGeometry x="885" y="720" width="120" height="80" as="geometry" />
        </mxCell>
        <mxCell id="yxDpOZDk2D4iF1txQsUS-161" value="" style="endArrow=classic;html=1;rounded=0;fontSize=12;startSize=8;endSize=8;curved=1;noEdgeStyle=1;orthogonal=1;" parent="1" source="yxDpOZDk2D4iF1txQsUS-160" target="yxDpOZDk2D4iF1txQsUS-134" edge="1">
          <mxGeometry relative="1" as="geometry">
            <mxPoint x="1369" y="505" as="sourcePoint" />
            <mxPoint x="1469" y="505" as="targetPoint" />
            <Array as="points">
              <mxPoint x="972.5" y="812" />
              <mxPoint x="1095" y="850" />
              <mxPoint x="1095" y="1030" />
              <mxPoint x="1095" y="1030" />
              <mxPoint x="1095" y="1210" />
              <mxPoint x="1095" y="1210" />
              <mxPoint x="1095" y="1390" />
              <mxPoint x="1095" y="1390" />
              <mxPoint x="1095" y="1570" />
              <mxPoint x="891.6666666666666" y="1608" />
            </Array>
          </mxGeometry>
        </mxCell>
        <mxCell id="yxDpOZDk2D4iF1txQsUS-162" value="2" style="edgeLabel;resizable=0;html=1;align=center;verticalAlign=middle;fontSize=16;" parent="yxDpOZDk2D4iF1txQsUS-161" connectable="0" vertex="1">
          <mxGeometry relative="1" as="geometry" />
        </mxCell>
        <mxCell id="yxDpOZDk2D4iF1txQsUS-163" value="" style="endArrow=classic;html=1;rounded=0;fontSize=12;startSize=8;endSize=8;curved=1;noEdgeStyle=1;orthogonal=1;" parent="1" source="yxDpOZDk2D4iF1txQsUS-159" target="yxDpOZDk2D4iF1txQsUS-134" edge="1">
          <mxGeometry relative="1" as="geometry">
            <mxPoint x="1219" y="717" as="sourcePoint" />
            <mxPoint x="1319" y="717" as="targetPoint" />
            <Array as="points">
              <mxPoint x="578.3333333333334" y="812" />
              <mxPoint x="345" y="850" />
              <mxPoint x="345" y="1030" />
              <mxPoint x="345" y="1030" />
              <mxPoint x="345" y="1210" />
              <mxPoint x="345" y="1210" />
              <mxPoint x="345" y="1390" />
              <mxPoint x="345" y="1390" />
              <mxPoint x="345" y="1570" />
              <mxPoint x="818.3333333333334" y="1608" />
            </Array>
          </mxGeometry>
        </mxCell>
        <mxCell id="yxDpOZDk2D4iF1txQsUS-164" value="5" style="edgeLabel;resizable=0;html=1;align=center;verticalAlign=middle;fontSize=16;" parent="yxDpOZDk2D4iF1txQsUS-163" connectable="0" vertex="1">
          <mxGeometry relative="1" as="geometry" />
        </mxCell>
        <mxCell id="yxDpOZDk2D4iF1txQsUS-166" value="" style="endArrow=classic;html=1;rounded=0;fontSize=12;startSize=8;endSize=8;curved=1;noEdgeStyle=1;orthogonal=1;" parent="1" source="yxDpOZDk2D4iF1txQsUS-77" target="yxDpOZDk2D4iF1txQsUS-134" edge="1">
          <mxGeometry relative="1" as="geometry">
            <mxPoint x="839" y="-53" as="sourcePoint" />
            <mxPoint x="939" y="-53" as="targetPoint" />
            <Array as="points">
              <mxPoint x="716.25" y="1532" />
              <mxPoint x="855" y="1606" />
            </Array>
          </mxGeometry>
        </mxCell>
        <mxCell id="yxDpOZDk2D4iF1txQsUS-167" value="3" style="edgeLabel;resizable=0;html=1;align=center;verticalAlign=middle;fontSize=16;" parent="yxDpOZDk2D4iF1txQsUS-166" connectable="0" vertex="1">
          <mxGeometry relative="1" as="geometry" />
        </mxCell>
        <mxCell id="yxDpOZDk2D4iF1txQsUS-169" value="" style="endArrow=classic;html=1;rounded=0;fontSize=12;startSize=8;endSize=8;curved=1;noEdgeStyle=1;orthogonal=1;" parent="1" source="yxDpOZDk2D4iF1txQsUS-77" target="yxDpOZDk2D4iF1txQsUS-129" edge="1">
          <mxGeometry relative="1" as="geometry">
            <mxPoint x="1311" y="507" as="sourcePoint" />
            <mxPoint x="1411" y="507" as="targetPoint" />
            <Array as="points">
              <mxPoint x="675" y="1426" />
              <mxPoint x="720" y="1390" />
              <mxPoint x="720" y="1210" />
              <mxPoint x="825" y="1210" />
              <mxPoint x="825" y="1030" />
              <mxPoint x="757" y="994" />
            </Array>
          </mxGeometry>
        </mxCell>
        <mxCell id="yxDpOZDk2D4iF1txQsUS-170" value="5" style="edgeLabel;resizable=0;html=1;align=center;verticalAlign=middle;fontSize=16;" parent="yxDpOZDk2D4iF1txQsUS-169" connectable="0" vertex="1">
          <mxGeometry relative="1" as="geometry" />
        </mxCell>
        <mxCell id="yxDpOZDk2D4iF1txQsUS-171" value="" style="endArrow=classic;html=1;rounded=0;fontSize=12;startSize=8;endSize=8;curved=1;noEdgeStyle=1;orthogonal=1;" parent="1" source="yxDpOZDk2D4iF1txQsUS-159" target="yxDpOZDk2D4iF1txQsUS-129" edge="1">
          <mxGeometry relative="1" as="geometry">
            <mxPoint x="1325" y="583" as="sourcePoint" />
            <mxPoint x="1425" y="583" as="targetPoint" />
            <Array as="points">
              <mxPoint x="651.6666666666666" y="812" />
              <mxPoint x="707.5" y="888" />
            </Array>
          </mxGeometry>
        </mxCell>
        <mxCell id="yxDpOZDk2D4iF1txQsUS-172" value="5" style="edgeLabel;resizable=0;html=1;align=center;verticalAlign=middle;fontSize=16;" parent="yxDpOZDk2D4iF1txQsUS-171" connectable="0" vertex="1">
          <mxGeometry relative="1" as="geometry" />
        </mxCell>
        <mxCell id="yxDpOZDk2D4iF1txQsUS-173" value="" style="endArrow=classic;html=1;rounded=0;fontSize=12;startSize=8;endSize=8;curved=1;noEdgeStyle=1;orthogonal=1;" parent="1" source="yxDpOZDk2D4iF1txQsUS-160" target="yxDpOZDk2D4iF1txQsUS-129" edge="1">
          <mxGeometry relative="1" as="geometry">
            <mxPoint x="1349" y="641" as="sourcePoint" />
            <mxPoint x="1449" y="641" as="targetPoint" />
            <Array as="points">
              <mxPoint x="917.5" y="812" />
              <mxPoint x="762.5" y="888" />
            </Array>
          </mxGeometry>
        </mxCell>
        <mxCell id="yxDpOZDk2D4iF1txQsUS-174" value="2" style="edgeLabel;resizable=0;html=1;align=center;verticalAlign=middle;fontSize=16;" parent="yxDpOZDk2D4iF1txQsUS-173" connectable="0" vertex="1">
          <mxGeometry relative="1" as="geometry" />
        </mxCell>
        <mxCell id="yxDpOZDk2D4iF1txQsUS-176" value="Wooden Barrels" style="shape=cube;whiteSpace=wrap;html=1;boundedLbl=1;backgroundOutline=1;darkOpacity=0.05;darkOpacity2=0.1;fontSize=16;fillColor=#ffe6cc;strokeColor=#d79b00;" parent="1" vertex="1">
          <mxGeometry x="375" y="1620" width="120" height="80" as="geometry" />
        </mxCell>
        <mxCell id="yxDpOZDk2D4iF1txQsUS-177" value="" style="endArrow=classic;html=1;rounded=0;fontSize=12;startSize=8;endSize=8;curved=1;noEdgeStyle=1;orthogonal=1;" parent="1" source="yxDpOZDk2D4iF1txQsUS-176" target="yxDpOZDk2D4iF1txQsUS-42" edge="1">
          <mxGeometry relative="1" as="geometry">
            <mxPoint x="-97" y="149" as="sourcePoint" />
            <mxPoint x="3" y="149" as="targetPoint" />
            <Array as="points">
              <mxPoint x="435" y="1712" />
              <mxPoint x="465" y="1788" />
            </Array>
          </mxGeometry>
        </mxCell>
        <mxCell id="yxDpOZDk2D4iF1txQsUS-178" value="10" style="edgeLabel;resizable=0;html=1;align=center;verticalAlign=middle;fontSize=16;" parent="yxDpOZDk2D4iF1txQsUS-177" connectable="0" vertex="1">
          <mxGeometry relative="1" as="geometry" />
        </mxCell>
        <mxCell id="yxDpOZDk2D4iF1txQsUS-180" value="" style="endArrow=classic;html=1;rounded=0;fontSize=12;startSize=8;endSize=8;curved=1;noEdgeStyle=1;orthogonal=1;" parent="1" source="yxDpOZDk2D4iF1txQsUS-107" target="yxDpOZDk2D4iF1txQsUS-159" edge="1">
          <mxGeometry relative="1" as="geometry">
            <mxPoint x="-131" y="461" as="sourcePoint" />
            <mxPoint x="-31" y="461" as="targetPoint" />
            <Array as="points">
              <mxPoint x="569" y="632" />
              <mxPoint x="587.5" y="708" />
            </Array>
          </mxGeometry>
        </mxCell>
        <mxCell id="yxDpOZDk2D4iF1txQsUS-181" value="3" style="edgeLabel;resizable=0;html=1;align=center;verticalAlign=middle;fontSize=16;" parent="yxDpOZDk2D4iF1txQsUS-180" connectable="0" vertex="1">
          <mxGeometry relative="1" as="geometry" />
        </mxCell>
        <mxCell id="yxDpOZDk2D4iF1txQsUS-182" value="" style="endArrow=classic;html=1;rounded=0;fontSize=12;startSize=8;endSize=8;curved=1;noEdgeStyle=1;orthogonal=1;" parent="1" source="yxDpOZDk2D4iF1txQsUS-107" target="yxDpOZDk2D4iF1txQsUS-176" edge="1">
          <mxGeometry relative="1" as="geometry">
            <mxPoint x="1358" y="815" as="sourcePoint" />
            <mxPoint x="1458" y="815" as="targetPoint" />
            <Array as="points">
              <mxPoint x="503" y="634" />
              <mxPoint x="465" y="670" />
              <mxPoint x="465" y="850" />
              <mxPoint x="255" y="850" />
              <mxPoint x="255" y="1030" />
              <mxPoint x="255" y="1030" />
              <mxPoint x="255" y="1210" />
              <mxPoint x="255" y="1210" />
              <mxPoint x="255" y="1390" />
              <mxPoint x="255" y="1390" />
              <mxPoint x="255" y="1570" />
              <mxPoint x="398.3333333333333" y="1608" />
            </Array>
          </mxGeometry>
        </mxCell>
        <mxCell id="yxDpOZDk2D4iF1txQsUS-183" value="4" style="edgeLabel;resizable=0;html=1;align=center;verticalAlign=middle;fontSize=16;" parent="yxDpOZDk2D4iF1txQsUS-182" connectable="0" vertex="1">
          <mxGeometry relative="1" as="geometry" />
        </mxCell>
        <mxCell id="yxDpOZDk2D4iF1txQsUS-184" value="" style="endArrow=classic;html=1;rounded=0;fontSize=12;startSize=8;endSize=8;curved=1;noEdgeStyle=1;orthogonal=1;" parent="1" source="yxDpOZDk2D4iF1txQsUS-20" target="yxDpOZDk2D4iF1txQsUS-176" edge="1">
          <mxGeometry relative="1" as="geometry">
            <mxPoint x="1335" y="643" as="sourcePoint" />
            <mxPoint x="1414" y="651" as="targetPoint" />
            <Array as="points">
              <mxPoint x="555.7142857142856" y="456" />
              <mxPoint x="645" y="490" />
              <mxPoint x="645" y="670" />
              <mxPoint x="705" y="670" />
              <mxPoint x="705" y="850" />
              <mxPoint x="555" y="850" />
              <mxPoint x="555" y="1030" />
              <mxPoint x="405" y="1030" />
              <mxPoint x="405" y="1210" />
              <mxPoint x="405" y="1210" />
              <mxPoint x="405" y="1390" />
              <mxPoint x="405" y="1390" />
              <mxPoint x="405" y="1570" />
              <mxPoint x="435" y="1606" />
            </Array>
          </mxGeometry>
        </mxCell>
        <mxCell id="yxDpOZDk2D4iF1txQsUS-185" value="2" style="edgeLabel;resizable=0;html=1;align=center;verticalAlign=middle;fontSize=16;" parent="yxDpOZDk2D4iF1txQsUS-184" connectable="0" vertex="1">
          <mxGeometry relative="1" as="geometry" />
        </mxCell>
        <mxCell id="yxDpOZDk2D4iF1txQsUS-186" value="" style="endArrow=classic;html=1;rounded=0;fontSize=12;startSize=8;endSize=8;curved=1;noEdgeStyle=1;orthogonal=1;" parent="1" source="yxDpOZDk2D4iF1txQsUS-77" target="yxDpOZDk2D4iF1txQsUS-176" edge="1">
          <mxGeometry relative="1" as="geometry">
            <mxPoint x="1345" y="653" as="sourcePoint" />
            <mxPoint x="1424" y="661" as="targetPoint" />
            <Array as="points">
              <mxPoint x="661.25" y="1534" />
              <mxPoint x="471.6666666666667" y="1608" />
            </Array>
          </mxGeometry>
        </mxCell>
        <mxCell id="yxDpOZDk2D4iF1txQsUS-187" value="2" style="edgeLabel;resizable=0;html=1;align=center;verticalAlign=middle;fontSize=16;" parent="yxDpOZDk2D4iF1txQsUS-186" connectable="0" vertex="1">
          <mxGeometry relative="1" as="geometry" />
        </mxCell>
        <mxCell id="yxDpOZDk2D4iF1txQsUS-188" value="" style="endArrow=classic;html=1;rounded=0;fontSize=12;startSize=8;endSize=8;curved=1;noEdgeStyle=1;orthogonal=1;" parent="1" source="yxDpOZDk2D4iF1txQsUS-20" target="yxDpOZDk2D4iF1txQsUS-159" edge="1">
          <mxGeometry relative="1" as="geometry">
            <mxPoint x="-34" y="569" as="sourcePoint" />
            <mxPoint x="66" y="569" as="targetPoint" />
            <Array as="points">
              <mxPoint x="539.9999999999999" y="458" />
              <mxPoint x="615" y="490" />
              <mxPoint x="615" y="670" />
              <mxPoint x="642.5" y="708" />
            </Array>
          </mxGeometry>
        </mxCell>
        <mxCell id="yxDpOZDk2D4iF1txQsUS-189" value="1" style="edgeLabel;resizable=0;html=1;align=center;verticalAlign=middle;fontSize=16;" parent="yxDpOZDk2D4iF1txQsUS-188" connectable="0" vertex="1">
          <mxGeometry relative="1" as="geometry" />
        </mxCell>
        <mxCell id="0s5IeUzLugU76TcuK4UH-1" value="" style="endArrow=classic;html=1;rounded=0;fontSize=12;startSize=8;endSize=8;curved=1;noEdgeStyle=1;orthogonal=1;" edge="1" parent="1" source="yxDpOZDk2D4iF1txQsUS-107" target="yxDpOZDk2D4iF1txQsUS-118">
          <mxGeometry relative="1" as="geometry">
            <mxPoint x="963" y="419" as="sourcePoint" />
            <mxPoint x="1063" y="419" as="targetPoint" />
            <Array as="points">
              <mxPoint x="525" y="636" />
              <mxPoint x="495" y="670" />
              <mxPoint x="495" y="850" />
              <mxPoint x="285" y="850" />
              <mxPoint x="285" y="1030" />
              <mxPoint x="285" y="1030" />
              <mxPoint x="285" y="1210" />
              <mxPoint x="285" y="1210" />
              <mxPoint x="285" y="1390" />
              <mxPoint x="285" y="1390" />
              <mxPoint x="285" y="1570" />
              <mxPoint x="248.33333333333334" y="1608" />
            </Array>
          </mxGeometry>
        </mxCell>
        <mxCell id="0s5IeUzLugU76TcuK4UH-2" value="2" style="edgeLabel;resizable=0;html=1;align=center;verticalAlign=middle;fontSize=16;" connectable="0" vertex="1" parent="0s5IeUzLugU76TcuK4UH-1">
          <mxGeometry relative="1" as="geometry" />
        </mxCell>
        <mxCell id="0s5IeUzLugU76TcuK4UH-3" value="" style="endArrow=classic;html=1;rounded=0;fontSize=12;startSize=8;endSize=8;curved=1;noEdgeStyle=1;orthogonal=1;" edge="1" parent="1" source="yxDpOZDk2D4iF1txQsUS-77" target="yxDpOZDk2D4iF1txQsUS-118">
          <mxGeometry relative="1" as="geometry">
            <mxPoint x="1098" y="526" as="sourcePoint" />
            <mxPoint x="1173" y="526" as="targetPoint" />
            <Array as="points">
              <mxPoint x="633.75" y="1532" />
              <mxPoint x="321.6666666666667" y="1608" />
            </Array>
          </mxGeometry>
        </mxCell>
        <mxCell id="0s5IeUzLugU76TcuK4UH-4" value="5" style="edgeLabel;resizable=0;html=1;align=center;verticalAlign=middle;fontSize=16;" connectable="0" vertex="1" parent="0s5IeUzLugU76TcuK4UH-3">
          <mxGeometry relative="1" as="geometry" />
        </mxCell>
        <mxCell id="0s5IeUzLugU76TcuK4UH-6" value="" style="endArrow=classic;html=1;rounded=0;fontSize=12;startSize=8;endSize=8;curved=1;noEdgeStyle=1;orthogonal=1;" edge="1" parent="1" source="yxDpOZDk2D4iF1txQsUS-159" target="yxDpOZDk2D4iF1txQsUS-118">
          <mxGeometry relative="1" as="geometry">
            <mxPoint x="1083" y="536" as="sourcePoint" />
            <mxPoint x="1183" y="536" as="targetPoint" />
            <Array as="points">
              <mxPoint x="615" y="814" />
              <mxPoint x="375" y="850" />
              <mxPoint x="375" y="1030" />
              <mxPoint x="375" y="1030" />
              <mxPoint x="375" y="1210" />
              <mxPoint x="375" y="1210" />
              <mxPoint x="375" y="1390" />
              <mxPoint x="375" y="1390" />
              <mxPoint x="375" y="1570" />
              <mxPoint x="285" y="1606" />
            </Array>
          </mxGeometry>
        </mxCell>
        <mxCell id="0s5IeUzLugU76TcuK4UH-7" value="5" style="edgeLabel;resizable=0;html=1;align=center;verticalAlign=middle;fontSize=16;" connectable="0" vertex="1" parent="0s5IeUzLugU76TcuK4UH-6">
          <mxGeometry relative="1" as="geometry" />
        </mxCell>
        <mxCell id="0s5IeUzLugU76TcuK4UH-11" value="Purified Sulfur" style="shape=cube;whiteSpace=wrap;html=1;boundedLbl=1;backgroundOutline=1;darkOpacity=0.05;darkOpacity2=0.1;fontSize=16;" vertex="1" parent="1">
          <mxGeometry x="660" y="360" width="120" height="80" as="geometry" />
        </mxCell>
        <mxCell id="0s5IeUzLugU76TcuK4UH-12" value="" style="endArrow=classic;html=1;rounded=0;fontSize=12;startSize=8;endSize=8;curved=1;noEdgeStyle=1;orthogonal=1;" edge="1" parent="1" source="yxDpOZDk2D4iF1txQsUS-20" target="yxDpOZDk2D4iF1txQsUS-52">
          <mxGeometry relative="1" as="geometry">
            <mxPoint x="1049" y="387" as="sourcePoint" />
            <mxPoint x="86" y="1395" as="targetPoint" />
            <Array as="points">
              <mxPoint x="587.1428571428569" y="452" />
              <mxPoint x="767.5" y="528" />
            </Array>
          </mxGeometry>
        </mxCell>
        <mxCell id="0s5IeUzLugU76TcuK4UH-13" value="1" style="edgeLabel;resizable=0;html=1;align=center;verticalAlign=middle;fontSize=16;" connectable="0" vertex="1" parent="0s5IeUzLugU76TcuK4UH-12">
          <mxGeometry relative="1" as="geometry" />
        </mxCell>
        <mxCell id="0s5IeUzLugU76TcuK4UH-14" value="" style="endArrow=classic;html=1;rounded=0;fontSize=12;startSize=8;endSize=8;curved=1;noEdgeStyle=1;orthogonal=1;" edge="1" parent="1" source="0s5IeUzLugU76TcuK4UH-11" target="yxDpOZDk2D4iF1txQsUS-52">
          <mxGeometry relative="1" as="geometry">
            <mxPoint x="6" y="1473" as="sourcePoint" />
            <mxPoint x="106" y="1473" as="targetPoint" />
            <Array as="points">
              <mxPoint x="720" y="452" />
              <mxPoint x="822.5" y="528" />
            </Array>
          </mxGeometry>
        </mxCell>
        <mxCell id="0s5IeUzLugU76TcuK4UH-15" value="1" style="edgeLabel;resizable=0;html=1;align=center;verticalAlign=middle;fontSize=16;" connectable="0" vertex="1" parent="0s5IeUzLugU76TcuK4UH-14">
          <mxGeometry relative="1" as="geometry" />
        </mxCell>
        <mxCell id="0s5IeUzLugU76TcuK4UH-16" value="" style="endArrow=classic;html=1;rounded=0;fontSize=12;startSize=8;endSize=8;curved=1;noEdgeStyle=1;orthogonal=1;" edge="1" parent="1" source="yxDpOZDk2D4iF1txQsUS-112" target="yxDpOZDk2D4iF1txQsUS-41">
          <mxGeometry relative="1" as="geometry">
            <mxPoint x="31" y="2400" as="sourcePoint" />
            <mxPoint x="131" y="2400" as="targetPoint" />
            <Array as="points">
              <mxPoint x="273.75" y="1892" />
              <mxPoint x="240" y="1968" />
            </Array>
          </mxGeometry>
        </mxCell>
        <mxCell id="0s5IeUzLugU76TcuK4UH-17" value="1" style="edgeLabel;resizable=0;html=1;align=center;verticalAlign=middle;fontSize=16;" connectable="0" vertex="1" parent="0s5IeUzLugU76TcuK4UH-16">
          <mxGeometry relative="1" as="geometry" />
        </mxCell>
      </root>
    </mxGraphModel>
  </diagram>
</mxfile>
